<?xml version="1.0" standalone="no"?>
<!DOCTYPE svg PUBLIC "-//W3C//DTD SVG 1.1//EN" "http://www.w3.org/Graphics/SVG/1.1/DTD/svg11.dtd" >
<svg xmlns="http://www.w3.org/2000/svg">
<metadata>
<json>
<![CDATA[
{
	"fontFamily": "siemens-webicons-webfont",
	"majorVersion": 2,
	"minorVersion": 3,
	"designer": "",
	"version": "Version 2.3",
	"fontId": "siemens-webicons-webfont",
	"psName": "siemens-webicons-webfont",
	"subFamily": "Regular",
	"fullName": "siemens-webicons-webfont",
	"description": "Font generated by IcoMoon."
}
]]>
</json>
</metadata>
<defs>
<font id="siemens-webicons-webfont" horiz-adv-x="1024">
<font-face units-per-em="1024" ascent="1003.52" descent="-20.48" />
<missing-glyph horiz-adv-x="1024" />
<glyph unicode="&#x20;" horiz-adv-x="512" d="" />
<glyph unicode="&#xe600;" glyph-name="apps" data-tags="apps" d="M0 992v-1024h1024v1024h-1024zM930.8 61.2h-837.6v837.6h838v-837.6zM226 614h112c22 0 40 18 40 40v112c0 22-18 40-40 40h-112c-22 0-40-18-40-40v-112c0-22.4 18-40 40-40zM514 614h112c22 0 40 18 40 40v112c0 22-18 40-40 40h-112c-22 0-40-18-40-40v-112c0-22.4 18-40 40-40zM226 326h112c22 0 40 18 40 40v112c0 22-18 40-40 40h-112c-22 0-40-18-40-40v-112c0-22.4 18-40 40-40z" />
<glyph unicode="&#xe605;" glyph-name="arrow-down-large" data-tags="arrow-link-large-down" d="M512 160l512 512.080-64.92 64.92-447.080-387.72-447.36 387.32-64.64-64.68 512-511.92z" />
<glyph unicode="&#xe606;" glyph-name="arrow-left-large" data-tags="arrow-link-large-left" d="M192 480l512.080-512 64.92 64.92-387.72 447.080 387.32 447.36-64.68 64.64-511.92-512z" />
<glyph unicode="&#xe607;" glyph-name="arrow-right-large" data-tags="arrow-link-large-right" d="M832 480l-512.080 512-64.92-64.92 387.72-447.080-387.32-447.36 64.68-64.64 511.92 512z" />
<glyph unicode="&#xe608;" glyph-name="arrow-up-large" data-tags="arrow-link-large-up" d="M512 800l-512-512.080 64.92-64.92 447.080 387.72 447.36-387.32 64.64 64.68-512 511.92z" />
<glyph unicode="&#xe609;" glyph-name="arrow-down-small" data-tags="arrow-link-small-down" d="M512 160l512 512.080-108.92 108.92-403.080-350-403.8 349.16-108.2-108.24 512-511.92z" />
<glyph unicode="&#xe60a;" glyph-name="arrow-left-small" data-tags="arrow-link-small-left" d="M192 480l512.080-512 108.92 108.92-350 403.080 349.16 403.8-108.24 108.2-511.92-512z" />
<glyph unicode="&#xe60b;" glyph-name="arrow-right-small" data-tags="arrow-link-small-right" d="M832 480l-512.080 512-108.92-108.92 350-403.080-349.16-403.8 108.24-108.2 511.92 512z" />
<glyph unicode="&#xe60c;" glyph-name="arrow-up-small" data-tags="arrow-link-small-up" d="M512 800l-512-512.080 108.92-108.92 403.080 350 403.8-349.16 108.2 108.24-512 511.92z" />
<glyph unicode="&#xe60d;" glyph-name="arrow-to-top" data-tags="arrow-to-top" d="M224 224l55.56-55.52 232.44 175.16 232.48-175.16 55.52 55.52-288 288-288-288zM224 768h576v-96h-576v96z" />
<glyph unicode="&#xe60e;" glyph-name="at" data-tags="at" d="M822.8 834.8c-76.8 60.4-182 93.2-296 93.2-108.4 0-219.2-40-304.4-110-72-59.2-158.4-166.8-158.4-342.8 0-125.6 39.6-233.6 114.4-312 82-86 202.4-131.2 348-131.2 130.4 0 231.6 47.2 236 49.2l-40.8 86.8c-0.8-0.4-86.4-40-194.8-40-118.8 0-215.2 35.2-278.8 101.6-57.6 60-88 145.2-88 245.6 0 138.4 66.8 222.4 123.2 268.4 67.2 55.2 158 88 243.6 88 92.8 0 176.8-26 236.4-72.8 66.4-52.4 100.4-126.4 100.4-220.4 0-181.2-123.2-203.2-128.4-204-12.4-2-28.8-0.8-42.8 10.4-20.4 15.6-8.4 74.4-8.4 74.4l38 240.8c0 0-80 46.8-177.2 41.2-50-2.8-100.8-23.6-142.8-58.4-47.2-38.8-80.8-92.8-94.8-152-23.2-96.4 7.2-154 27.6-179.6 29.6-37.6 76-59.2 126.8-59.2 50.4 0 97.2 12.4 136 36.4 3.2 2.4 6 4.8 9.2 7.2 8-11.2 26.8-33.6 60.8-47.6 25.6-10.4 54-12.4 83.2-7.6 23.2 3.6 83.2 18.8 135.6 78.4 33.6 38.4 74 107.6 74 220.4-0.8 122.4-48 224.8-137.6 295.6zM589.2 436.4c0 0-6-33.2-17.6-45.6-17.2-18.4-50-42.8-110.4-42.8-21.2 0-40.4 8.4-51.6 22.8-7.6 9.6-23.6 38.4-9.6 98 9.2 38.8 31.6 74.8 62.8 100.4 26.4 22 57.2 34.8 86.8 36.4 12 0.8 23.6 0.4 34.8-1.2 12.4-1.6 22.4-4 30.4-6l-25.6-162z" />
<glyph unicode="&#xe60f;" glyph-name="bookmark" data-tags="bookmark" d="M512.8 288.8l224.4-256.8 62.8 896h-576l62.8-896z" />
<glyph unicode="&#xe610;" glyph-name="calculate" data-tags="calculate" d="M176 928v-896h672v896h-672zM368 128h-96v96h96v-96zM368 320h-96v96h96v-96zM368 512h-96v96h96v-96zM560 128h-96v96h96v-96zM560 320h-96v96h96v-96zM560 512h-96v96h96v-96zM752 128h-96v96h96v-96zM752 320h-96v96h96v-96zM752 512h-96v96h96v-96zM752 704h-480v128h480v-128z" />
<glyph unicode="&#xe611;" glyph-name="calendar" data-tags="calendar" d="M512.4 357.6l4.4 1.2c29.6 6.8 50 27.2 50 50.4 0 25.6-20.4 40.8-54 40.8s-54.8-15.6-54.8-39.6c-0.4-25.6 18.4-43.2 54.4-52.8zM192 0h640v640h-640v-640zM375.6 410c0 62.8 52.4 102 136.8 102 83.6 0 136.4-39.2 136.4-102 0-37.2-16.8-59.6-60-80.8 48.4-19.2 68-45.6 68-89.6 0-70.4-53.2-111.6-144.4-111.6-91.6 0-144.8 41.2-144.8 111.6 0 44 20 70.4 68 89.6-42.4 20.8-60 44.4-60 80.8zM512.4 190.4c36.4 0 60.8 18.8 60.8 48.4 0 28.4-21.6 48.8-64 59.6-38.8-10.8-58-31.2-58-59.6 0-30 23.6-48.4 61.2-48.4zM768 864v96h-96v-96h-320v96h-96v-96h-64v-128h640v128z" />
<glyph unicode="&#xe612;" glyph-name="chat" data-tags="chat" d="M64 864l40.4-576h431.2l256-256v256h128l40.4 576z" />
<glyph unicode="&#xe613;" glyph-name="check-mark" data-tags="check-mark" d="M918 865.6l106-105.6-665.6-665.6-358.4 358.4 106 105.6 229.2-199.2z" />
<glyph unicode="&#xe614;" glyph-name="circle" data-tags="circle" d="M960 480c0-247.424-200.576-448-448-448s-448 200.576-448 448c0 247.424 200.576 448 448 448s448-200.576 448-448z" />
<glyph unicode="&#xe615;" glyph-name="close" data-tags="close" d="M793.6 96l102.4 102.4-244.8 281.6 244.8 281.6-102.4 102.4-281.6-244.8-281.6 244.8-102.4-102.4 244.8-281.6-244.8-281.6 102.4-102.4 281.6 244.8 281.6-244.8z" />
<glyph unicode="&#xe616;" glyph-name="control" data-tags="control" d="M272 896h-96v-576h-96v-160h96v-96h96v96h96v160h-96zM944 480h-96v416h-96v-416h-96v-160h96v-256h96v256h96zM656 640v160h-96v96h-96v-96h-96v-160h96v-576h96v576z" />
<glyph unicode="&#xe617;" glyph-name="delete" data-tags="delete" d="M640 832v96h-256v-96h-224v-96h704v96zM266 32h492l42.4 608h-576.8z" />
<glyph unicode="&#xe618;" glyph-name="double-arrow-backward" data-tags="double-arrow-backward" d="M575.4 480l361.2-208v416l-361.2-208zM448.6 272v416l-361.2-208 361.2-208z" />
<glyph unicode="&#xe619;" glyph-name="double-arrow-down" data-tags="double-arrow-down" d="M304 904.6h416l-208-361.2-208 361.2zM304 416.6h416l-208-361.2-208 361.2z" />
<glyph unicode="&#xe61a;" glyph-name="double-arrow-forward" data-tags="double-arrow-forward" d="M87.4 272v416l361.2-208-361.2-208zM575.4 272v416l361.2-208-361.2-208z" />
<glyph unicode="&#xe61b;" glyph-name="double-arrow-up" data-tags="double-arrow-up" d="M304 55.4h416l-208 361.2-208-361.2zM512 904.6l-208-361.2h416l-208 361.2z" />
<glyph unicode="&#xe61c;" glyph-name="download" data-tags="download" d="M789.6 650.4l-196.4-148-17.2 489.6h-128l-17.2-489.6-196.4 148-74.4-74.4 352-352 352 352zM775.6 160l-6.8-96h-519.2l-6.8 96h-96.4l13.6-192h704l13.6 192zM864 576l-74.4 74.4-196.4-148-17.2 489.6h-128l-17.2-489.6-196.4 148-74.4-74.4 352-352z" />
<glyph unicode="&#xe61d;" glyph-name="drag" data-tags="drag" d="M687.6 757.6c-14 0-26-4.8-35.2-13.6v6c0 36-21.2 60-52.8 60-14.4 0-26.8-5.2-36-14.4-4 30-24 49.2-52 49.2-23.6 0-41.6-13.6-48.8-36-9.2 11.2-22.8 17.6-38.8 17.6-31.2 0-52.8-24-52.8-60v0 0-95.2c-9.2 8.8-21.2 13.6-35.2 13.6-31.2 0-52.8-24-52.8-60v0-200.4l109.6-175.2v-70h276.4v123.2l70 157.6v237.6c1.2 36-20 60-51.6 60zM874.8 630l-45.6-45.6 78.4-104.4-78.4-104.4 45.6-45.6 150 150zM150 630l-150-150 150-150 45.6 45.6-78.8 104.4 78.8 104.4z" />
<glyph unicode="&#xe61e;" glyph-name="edit" data-tags="edit" d="M218.8 32l189.6 100.8-189.2 113.6zM655.6 928l-190.4-271.6-188.8-314.4 189.2-113.6 188.8 314 150.8 295.6z" />
<glyph unicode="&#xe61f;" glyph-name="email" data-tags="e-mail" d="M684 460l340 340h-1024l340-340zM0 664v-504l252 252zM340 364l-204-204h752.4l-204.4 204zM1024 160v504.4l-252-252.4z" />
<glyph unicode="&#xe620;" glyph-name="ext" data-tags="external-link" d="M896 864h-640v-149.88l311.080-43.72-438.88-470.64 103.36-103.76 470.84 439.080 43.72-311.080h149.88v640z" />
<glyph unicode="&#xe621;" glyph-name="facebook" data-tags="facebook" d="M580 32v408h138.4l20.4 160h-158.8v101.6c0 46 13.2 77.6 79.2 77.6h84.8v142.4c-12 2-64.8 6.4-123.2 6.4-121.6 0-204.8-74.4-204.8-210.4v-117.6h-136v-160h136v-408h164z" />
<glyph unicode="&#xe622;" glyph-name="facebook-negative" data-tags="facebook-negative" d="M1024 992h-1024v-1024h548v396h-136v156h136v113.2c0 132.4 79.6 204.4 197.6 204.4 56.4 0 106.4-4.4 118.4-6v-138.4h-80.8c-64 0-75.2-30.4-75.2-75.2v-98h151.6l-20-156h-131.6v-396h316v1024z" />
<glyph unicode="&#xe623;" glyph-name="fax" data-tags="fax" d="M478 172c-13.6 24-37.2 31.6-57.6 19.6l-82.4-47.6c-38 33.2-71.6 73.2-98.4 119.6s-44.8 95.2-54.4 144.8l82.4 47.6c20.8 12 25.6 36 12 60l-58.8 101.2c-13.6 24-37.2 31.6-57.6 19.6-42.4-24.4-73.2-54.4-90.4-72.8-3.6-4-5.6-8.8-6.4-14.4-10.4-115.2 13.6-234.4 75.6-342.4 62-107.6 153.6-188 258.4-236.8 5.2-2.4 10.4-2.8 15.6-1.6 24.8 5.6 66 17.6 108.4 42 20.8 12 25.6 36 12 60l-58.4 101.2zM696.8 992h-312.8v-704h512v504.8l-199.2 199.2zM480 800h224v-96h-224v96zM800 512h-320v96h320v-96z" />
<glyph unicode="&#xe624;" glyph-name="file" data-tags="file" d="M496 960h-320v-960h672v608h-352zM592 960v-256h256z" />
<glyph unicode="&#xe625;" glyph-name="avi" data-tags="file-avi" d="M279.2 243.2l-103.2-270.4h60.8l23.2 64.4h102l23.6-64.4h64.4l-106.8 270.8h-64zM275.6 82.8l21.2 58.8c8.4 22.8 9.2 26 13.6 42.4 6.8-21.6 8.4-26 14-42.4l21.2-58.8h-70zM608.8 119.2c-10.4-28.4-13.6-37.2-25.2-74-3.6 12.8-16 50.8-26 76.4l-44.8 121.6h-63.2l102.4-270.8h61.2l102.4 270.8h-60.4l-46.4-124zM786.8 243.2h61.2v-270.8h-61.2v270.8zM176 992v-652h672v652h-672zM384.8 506v320l278.4-160-278.4-160z" />
<glyph unicode="&#xe626;" glyph-name="doc" data-tags="file-doc" d="M592 992v-256h256zM496 992h-320v-652h672v300h-352zM791.6 20.4c-35.2 0-63.6 29.6-63.6 88 0 57.6 31.2 87.6 64.4 87.6 13.6 0 24.4-2.4 32.8-5.2l18 46c-20 8-36.8 10.8-58.4 10.8-74.8 0-120-53.6-120-142.4 0-43.2 10.8-77.6 32-101.6 21.6-24.8 50-36 91.2-36 24 0 39.6 2.4 58.8 10.8l-16 48.8c-10-3.2-23.6-6.8-39.2-6.8zM524 248c-32.4 0-57.2-10.4-75.6-31.6-22-25.2-34.4-63.2-34.4-106.8 0-41.2 8.4-72.8 26-98.8 19.6-28.8 46.4-42.8 83.6-42.8 32.4 0 57.2 10 75.6 31.6 22.4 26 34.4 62.8 34.4 108.4 0 39.6-8.4 71.6-26 97.2-19.2 29.2-46 42.8-83.6 42.8zM524 24.4c-29.2 0-48.8 35.6-48.8 83.6s19.6 83.6 48.8 83.6c29.2 0 48.8-35.6 48.8-83.6-0.4-48-20-83.6-48.8-83.6zM243.2 243.2h-67.2v-270.8h63.6c48.4 0 73.2 5.6 94.8 20.4 30 21.2 46.4 60.8 46.4 114.8 0 45.2-11.6 80.4-33.6 103.2-22.8 24-51.2 32.4-104 32.4zM286.8 34c-11.6-8-28-12.4-49.6-13.2v174.8c29.2-0.8 42.4-5.2 55.6-17.2 15.6-13.6 25.2-40.4 25.2-69.6-0.4-34.4-11.6-62-31.2-74.8z" />
<glyph unicode="&#xe627;" glyph-name="eps" data-tags="file-eps" d="M592 994.4v-256h256zM496 994.4h-320v-652h672v300h-352zM237.2 88.4h104.8v47.6h-104.8v62h110v47.6h-171.2v-270.4h177.2v47.6h-116zM578 228c-18 13.6-38 17.6-85.2 17.6h-76.4v-270.8h61.2v103.2h25.6c37.6 0 59.2 5.6 76 18.4 18.4 14.8 28.4 38.4 28.4 65.6-0.4 28.4-10.8 52-29.6 66zM530 129.6c-8.8-4.8-15.6-5.6-36.4-5.6h-17.6v76h17.6c20 0 27.6-1.6 37.2-7.2 9.6-6.4 15.6-18 15.6-32.4 0-14.8-6-26-16.4-30.8zM824.4 110c-11.2 8.8-18.4 12-58.4 28.4s-45.6 21.2-45.6 35.6c0 17.6 13.2 28.4 35.6 28.4 20 0 34-3.2 70-16.4l12.4 49.2c-33.2 10.4-58.8 14.8-86.4 14.8-27.2 0-47.6-6-63.6-18-19.6-14.8-30.8-39.2-30.8-66.4 0-22.4 8-39.2 24-51.2 11.2-8.4 20.4-12.8 53.2-26.4 43.6-18 49.6-22.8 49.6-38.4 0-20-14.8-32-39.6-32-23.6 0-44.4 5.2-78.8 19.6l-8.8-52c30.8-10.8 56.4-15.2 90.8-15.2 64.8 0 100 29.6 100 84.8 0 24.8-8 43.2-23.6 55.2z" />
<glyph unicode="&#xe628;" glyph-name="jpg" data-tags="file-jpg" d="M176 992v-652h672v652h-672zM374.4 895.2c39.6 0 72-32.4 72-72s-32.4-72-72-72c-39.6 0-72 32.4-72 72s32.4 72 72 72zM272 468l102.4 152 64.4-95.2 137.2 199.2 176-256h-480zM250 70.4c0-24-1.2-33.2-6-40-5.6-8.8-15.2-13.2-28.4-13.2-10 0-20 2.4-34.4 8.8l-5.2-49.6c14.4-5.6 32-8.4 51.2-8.4 30.8 0 52.8 8.4 66.4 25.2 14.4 17.2 17.2 32.4 17.2 90.8v159.6h-60.8v-173.2zM539.2 225.6c-18 13.6-38 17.6-85.2 17.6h-76.4v-270.8h61.2v103.6h25.6c37.6 0 59.2 5.6 76 18.4 18.4 14.8 28.4 38.4 28.4 65.6-0.4 28-10.8 51.6-29.6 65.6zM490.8 127.2c-8.8-4.8-15.6-5.6-36.4-5.6h-17.6v76h17.6c20 0 27.6-1.6 37.2-7.2 9.6-6.4 15.6-18 15.6-32.4 0-14.8-5.6-25.6-16.4-30.8zM757.2 200.4c24.8 0 42.8-4.8 70-18.4l20.8 47.6c-30 12.4-59.6 18.4-94.8 18.4-39.6 0-68.4-8.4-92-26.4-33.2-25.2-50.4-65.2-50.4-116.4 0-43.2 12-76.8 36.8-101.2 24-24.4 57.2-35.6 103.6-35.6 34.4 0 54.4 3.6 96.4 18v137.6h-105.6v-47.6h46.4v-54.4c-11.2-4.4-23.2-6.4-35.2-6.4-48.8 0-79.6 35.6-79.6 91.6 0.4 60 30 93.2 83.6 93.2z" />
<glyph unicode="&#xe629;" glyph-name="mov" data-tags="file-mov" d="M176 992v-652h672v652h-672zM384.8 506v320l278.4-160-278.4-160zM751.2 97.6l-40.8 145.6h-56l75.6-270.4h42.8l75.2 270.4h-55.6zM546.4 248c-29.2 0-51.2-10.4-68-31.6-20-25.2-30.8-63.2-30.8-106.8 0-41.2 7.6-72.8 23.2-98.8 17.6-28.8 41.6-42.8 75.2-42.8 29.2 0 51.2 10 68 31.6 20 26 30.8 62.8 30.8 108.4 0 39.6-7.6 71.6-23.2 97.2-17.6 29.2-41.6 42.8-75.2 42.8zM546 24.4c-27.2 0-45.6 35.6-45.6 83.6s18.4 83.6 45.6 83.6c27.2 0 45.6-35.6 45.6-83.6s-18-83.6-45.6-83.6zM293.2 151.6l-33.6 91.6h-83.6v-270.4h56.4v186.4l41.2-126.4h38.8l41.6 126.4v-186.4h56v270.4h-83.6z" />
<glyph unicode="&#xe62a;" glyph-name="mp3" data-tags="file-mp3" d="M848 992h-672v-652h672v652zM511.2 448c-79.2 0-132 42-132 104s52.8 104 132 104c12.8 0 24.8-1.2 36-3.2v231.2h96v-332c0-62-52.8-104-132-104zM625.2 225.6c-18 13.6-38 17.6-85.2 17.6h-76v-270.4h60.8v103.2h25.2c37.6 0 58.8 5.6 75.6 18.4 18.4 14.8 28.4 38.4 28.4 65.6 0.4 28.4-10 51.6-28.8 65.6zM577.2 127.2c-8.8-4.8-15.6-5.6-36.4-5.6h-17.6v75.6h17.6c20 0 27.6-1.6 37.2-7.2 9.6-6.4 15.6-18 15.6-32.4s-6-25.2-16.4-30.4zM790.8 112c38 6 56 25.6 56 61.2 0 48.4-34.4 74.4-98.8 74.4-24.8 0-46.4-2.8-68.4-8.8l12.8-46.4c17.2 5.2 31.6 7.6 46.8 7.6 30 0 46.8-11.2 46.8-32 0-23.6-22-34-72-34.4v-43.6c3.2 0 5.6 0 9.6 0 21.6 0 34.4-2 44.4-6.8 13.2-6 20.8-17.2 20.8-30.8 0-24.4-19.2-37.6-54.4-37.6-17.6 0-34.4 2.4-50.8 7.6l-12.8-46.4c21.2-6 43.2-8.8 69.6-8.8 36.4 0 60.8 6.4 79.6 20.4 18.4 14 29.2 36.8 29.2 62 0.4 36.8-18.8 56.8-58.4 62.4zM293.2 151.6l-33.6 91.6h-83.6v-270.4h56.4v186.4l41.2-126.4h38.8l41.6 126.4v-186.4h56v270.4h-83.6z" />
<glyph unicode="&#xe62b;" glyph-name="mp4" data-tags="file-mp4" d="M628.8 225.6c-18 13.6-38 17.6-85.2 17.6h-76.4v-270.8h61.2v103.6h25.6c37.6 0 59.2 5.6 76 18.4 18.4 14.8 28.4 38.4 28.4 65.6-0.4 28-10.8 51.6-29.6 65.6zM580.8 127.2c-8.8-4.8-15.6-5.6-36.4-5.6h-17.6v76h17.6c20 0 27.6-1.6 37.2-7.2 9.6-6.4 15.6-18 15.6-32.4 0-14.8-6-25.6-16.4-30.8zM845.6 78v165.6h-71.6l-91.2-161.6v-47.6h103.6v-61.2h59.2v61.2h22.4v43.6h-22.4zM788 78h-49.2l49.2 96.4v-96.4zM848 992h-672v-652h672v652zM384.8 506v320l278.4-160-278.4-160zM293.2 129.6l-41.6 113.6h-75.6v-270.4h56.4v186.4l41.2-114.4h38.8l41.6 114.4v-186.4h56v270.4h-75.6z" />
<glyph unicode="&#xe62c;" glyph-name="pdf" data-tags="file-pdf" d="M592 994.4v-256h256zM496 994.4h-320v-652h672v300h-352zM337.6 228c-18 13.6-38 17.6-85.2 17.6h-76.4v-270.8h61.2v103.2h25.6c37.6 0 59.2 5.6 76 18.4 18.4 14.8 28.4 38.4 28.4 65.6-0.4 28.4-10.8 52-29.6 66zM289.6 129.6c-8.8-4.8-15.6-5.6-36.4-5.6h-17.6v76h17.6c20 0 27.6-1.6 37.2-7.2 9.6-6.4 15.6-18 15.6-32.4 0-14.8-6-26-16.4-30.8zM598.4 213.6c-25.6 23.6-56.8 32-115.6 32h-75.2v-270.8h70.8c54 0 81.6 5.6 106 20.4 33.6 21.2 51.6 60.8 51.6 114.8 0 45.6-12.8 80.8-37.6 103.6zM542 36.4c-13.6-9.2-33.6-13.6-61.6-13.6h-11.6v175.2h11.6c38 0 52.8-4 67.6-17.2 15.6-13.6 25.2-40.4 25.2-69.6 0-34.4-11.6-62-31.2-74.8zM676-24.8h60.8v113.2h105.6v47.6h-105.6v62h111.2v47.6h-172z" />
<glyph unicode="&#xe62d;" glyph-name="png" data-tags="file-png" d="M329.6 225.6c-18 13.6-38 17.6-85.2 17.6h-68.4v-270.8h61.2v103.6h17.6c37.6 0 59.2 5.6 76 18.4 18.4 14.8 28.4 38.4 28.4 65.6-0.4 28-10.8 51.6-29.6 65.6zM281.6 127.2c-8.8-4.8-15.6-5.6-36.4-5.6h-9.6v76h9.6c20 0 27.6-1.6 37.2-7.2 9.6-6.4 15.6-18 15.6-32.4 0-14.8-6-25.6-16.4-30.8zM537.2 109.6c0-14 0-22 0-27.6-22.4 49.6-72 161.2-72 161.2h-67.2v-270.8h58.8c0 0 0 150 0 158.4 23.2-49.6 73.2-158.4 73.2-158.4h66v270.8h-58.8v-133.6zM770.4 200.4c22.4 0 33.6-4.8 58.4-18.4l18.8 47.6c-27.6 12.4-48.8 18.4-81.2 18.4-36 0-57.2-8.4-78.8-26.4-30.4-25.2-46-65.2-46-116.4 0-43.2 11.2-76.8 33.6-101.2 22-24.4 46.8-35.6 89.2-35.6 31.6 0 61.2 7.2 82.8 18v137.6h-96.8v-47.6h42.8v-54.4c-10.4-4.4-15.6-6.4-26.8-6.4-36.4 0-61.2 35.6-61.2 91.6 0.8 60 28 93.2 65.2 93.2zM176 992v-652h672v652h-672zM374.4 895.2c39.6 0 72-32.4 72-72s-32.4-72-72-72c-39.6 0-72 32.4-72 72s32.4 72 72 72zM272 468l102.4 152 64.4-95.2 137.2 199.2 176-256h-480z" />
<glyph unicode="&#xe62e;" glyph-name="ppt" data-tags="file-ppt" d="M592 994.4v-256h256zM496 994.4h-320v-652h672v300h-352zM337.6 228c-18 13.6-38 17.6-85.2 17.6h-76.4v-270.8h61.2v103.2h25.6c37.6 0 59.2 5.6 76 18.4 18.4 14.8 28.4 38.4 28.4 65.6-0.4 28.4-10.8 52-29.6 66zM289.6 129.6c-8.8-4.8-15.6-5.6-36.4-5.6h-17.6v76h17.6c20 0 27.6-1.6 37.2-7.2 9.6-6.4 15.6-18 15.6-32.4 0-14.8-6-26-16.4-30.8zM572.4 228c-18 13.6-38 17.6-85.2 17.6h-76.4v-270.8h61.2v103.2h25.6c37.6 0 59.2 5.6 76 18.4 18.4 14.8 28.4 38.4 28.4 65.6-0.4 28.4-10.8 52-29.6 66zM524.4 129.6c-8.8-4.8-15.6-5.6-36.4-5.6h-17.6v76h17.6c20 0 27.6-1.6 37.2-7.2 9.6-6.4 15.6-18 15.6-32.4 0-14.8-6-26-16.4-30.8zM629.2 198h78.4v-222.8h61.2v222.8h79.2v47.6h-218.8z" />
<glyph unicode="&#xe62f;" glyph-name="files" data-tags="files" d="M224 896h-96v-928h672v96h-576zM608 992h-288v-832h576v544h-288zM704 992v-192h192z" />
<glyph unicode="&#xe630;" glyph-name="tif" data-tags="file-tif" d="M176 992v-652h672v652h-672zM374.4 895.2c39.6 0 72-32.4 72-72s-32.4-72-72-72c-39.6 0-72 32.4-72 72s32.4 72 72 72zM272 468l102.4 152 64.4-95.2 137.2 199.2 176-256h-480zM176 195.6h90.4v-222.8h60.8v222.8h91.6v47.6h-242.8zM500 243.2h61.2v-270.8h-61.2v270.8zM660-27.2h60.8v113.2h121.6v48h-121.6v61.6h127.2v47.6h-188z" />
<glyph unicode="&#xe631;" glyph-name="vcf" data-tags="file-vcf" d="M297.6 64c-14.4 45.2-61.6 179.2-61.6 179.2h-60l94.4-270.8h54.4l94.4 270.8h-60c0 0-46.8-134-61.6-179.2zM676-27.2h60.8v113.2h105.6v48h-105.6v61.6h111.2v47.6h-172zM176 992v-652h672v652h-672zM512 895.2c43.6 0 73.6-33.6 73.6-84s-29.6-84-73.6-84c-43.6 0-73.6 33.6-73.6 84s30 84 73.6 84zM675.2 439.6c0-1.2 0-2.4 0-3.6h-326.4c0 1.2 0 2.4 0 3.6 0 87.6 0 156.4 0 156.4 0 37.6 22 62.8 54.8 62.8h53.6l54.8-54.8 54.8 54.8h53.6c32.8 0 54.8-25.2 54.8-62.8 0 0 0-68.8 0-156.4zM560.8 20.4c-35.2 0-63.6 29.6-63.6 88 0 57.6 31.2 87.6 64.4 87.6 32.8 0 51.2-13.6 51.2-13.6l18.4 46c-28.8 14-49.2 19.2-76.8 19.2-74.8 0-120-53.6-120-142.4 0-43.2 10.8-77.6 32-101.6 21.6-24.8 50-36 91.2-36 31.2 0 48.4 4.4 77.2 20l-15.6 48.4c-0.8 0.4-26-15.6-58.4-15.6z" />
<glyph unicode="&#xe632;" glyph-name="xls" data-tags="file-xls" d="M592 994.4v-256h256zM496 994.4h-320v-652h672v300h-352zM432.4 245.6h-68.8l-54.8-88.4-58.4 88.4h-69.6l88-131.6-92.8-138.8h70.8l58.8 90 55.6-90h72l-92 137.2zM532.4 245.6h-60.8v-270.4h153.2v47.6h-92.4zM824.4 110c-11.2 8.4-18.4 12-58.4 28.4s-45.6 21.2-45.6 35.6c0 17.6 13.2 28.4 35.6 28.4 20 0 34-3.2 70-16.4l12.4 49.2c-33.2 10.4-58.8 14.8-86.4 14.8-27.2 0-47.6-6-63.6-18-19.6-14.8-30.8-39.2-30.8-66.4 0-22.4 8-39.2 24-51.2 11.2-8.4 20.4-12.8 53.2-26.4 43.6-18 49.6-22.8 49.6-38.4 0-20-14.8-32-39.6-32-23.6 0-44.4 5.2-78.8 19.6l-8.8-52c30.8-10.8 56.4-15.2 90.8-15.2 64.8 0 100 29.6 100 84.8 0 24.8-8 43.2-23.6 55.2z" />
<glyph unicode="&#xe633;" glyph-name="zip" data-tags="file-zip" d="M592 992v-256h256zM848 640h-352v352h-320v-652h672zM384 200.4v42.8h-203.2v-47.6h126.8l-131.6-180v-42.8h212.8v47.6h-136.4zM483.6 243.2h61.2v-270.8h-61.2v270.8zM818.8 225.6c-18 13.6-54 17.6-101.2 17.6h-76.4v-270.8h61.2v103.6h41.6c37.6 0 59.2 5.6 76 18.4 18.4 14.8 28.4 38.4 28.4 65.6-0.4 28-10.8 51.6-29.6 65.6zM770.4 127.2c-8.8-4.8-15.6-5.6-36.4-5.6h-33.6v76h33.6c20 0 27.6-1.6 37.2-7.2 9.6-6.4 15.6-18 15.6-32.4 0-14.8-5.6-25.6-16.4-30.8z" />
<glyph unicode="&#xe634;" glyph-name="forum" data-tags="forum" d="M256 512c70 0 117.6 54 117.6 134.4s-47.6 134.4-117.6 134.4c-70 0-117.6-54-117.6-134.4s47.6-134.4 117.6-134.4zM429.6 409.6v0l-88 6.4c0 0 0 0 0 0l-85.6-85.2-85.2 85.2c0 0 0 0 0 0v0l-88-6c-48.8-3.6-81.6-42.4-82.8-99.6 0 0 0 0 0 0 0-22.8 0-136.4 0-246.4h512c0 110 0 223.6 0 246.4 0 0 0 0 0 0-1.2 57.2-34 96-82.4 99.2zM816 645.6c56.8 0 95.6 43.6 95.6 109.2s-38.8 109.2-95.6 109.2c-56.8 0-95.6-43.6-95.6-109.2s38.8-109.2 95.6-109.2zM1024 490c-0.8 46.4-27.6 78-67.2 80.8v0l-71.6 4.8-69.2-68.8-69.2 69.2c0 0 0 0 0 0v0l-71.6-4.8c-39.6-2.8-66-34.4-66.8-80.8 0 0 0 0 0 0 0-18.4 0-112.8 0-202h416c-0.4 88.8-0.4 183.2-0.4 201.6 0 0 0 0 0 0z" />
<glyph unicode="&#xe635;" glyph-name="fullscreen" data-tags="fullscreen" d="M96 800h160v96h-256v-256h96zM96 320h-96v-256h256v96h-160zM768 896v-96h160v-160h96v256zM928 160h-160v-96h256v256h-96zM193.6 255.6h640l-1.6 448.4h-640z" />
<glyph unicode="&#xe636;" glyph-name="globe" data-tags="globe" d="M512 992c-282.8 0-512-229.2-512-512s229.2-512 512-512 512 229.2 512 512-229.2 512-512 512zM512 64c-229.2 0-416 186.8-416 416 0 50.4 9.2 98.8 25.6 143.6l33.2-116.4 70.8-104.8h75.6v-50.8l53.6-64v-116l50.8-56.4 143.2 229.6v97.2l-208.4 56.8h-28.4l-22.8 34 47.6 60h78.4l45.6 149.6-97.2 86.8h-77.6c65.2 42 142.8 66.8 226 66.8 57.6 0 112.8-12 162.8-33.2v-53.6l-59.6-26.4 39.2-87.6 52.8 23.6h145.6c20.8-29.6 37.6-61.6 50-96h-182.8l-85.6-95.2 15.2-107.6h96l27.6-197.2h65.2c-76-96.8-194-158.8-326.4-158.8z" />
<glyph unicode="&#xe637;" glyph-name="glossary" data-tags="glossary" d="M219.2 288l-122-320h71.6l27.2 76.4h120.8l27.6-76.4h76.4l-126.4 320h-75.2zM214.8 98.4l41.2 119.2 41.6-119.2h-82.8zM444 156h144v-56h-144v56zM865.6 237.2v50.8h-240.4v-56.4h150l-155.6-212.8v-50.8h251.6v56.4h-161.6zM464 936l-398.8 56v-576l398.8 56zM560 936v-464l399.6-56v576z" />
<glyph unicode="&#xe638;" glyph-name="google" data-tags="google+" d="M832 544v128h-64v-128h-128v-64h128v-128h64v128h128v64h-128zM625.68 928h-242.2c-161.24 0-262.88-104-262.88-223.4 0-121.8 96.92-186 190.88-186 5.28 0 10.36 0 14.96 0.24-5.52-13.974-8.866-30.148-9.198-47.061-0.002-32.619 17.438-63.059 29.198-80.139-206.72-11.24-284-108-284-193.16-0.12-62.24 60.16-166.48 249.56-166.48s292 115.28 292 217.92c0 149.96-160 180-160 248.56 0 77.48 118.76 69.44 118.76 228-0.32 61.52-30 121.52-79.96 149.52h75.36zM505.44 211.64c0-70.16-51.56-108.8-145.2-108.8-102.48 0-176.84 52-176.84 123.6 0 76.24 72.92 123.56 190.32 123.56h19.64c10.258-9.919 21.27-19.244 32.873-27.814 52.807-40.266 79.207-68.146 79.207-110.546zM432.6 610.88c-9.231-17.356-25.090-30.157-44.114-35.132-7.91-2.384-16.449-3.724-25.292-3.788-21.794 0-76.034 11.24-109.354 115.48-10.32 32.32-37.64 140 44.48 168.88 7.625 2.849 16.434 4.554 25.625 4.679 43.855 0.001 84.055-43.679 107.255-116.999 17.28-53.88 17.76-102.44 1.4-133.12z" />
<glyph unicode="&#xe639;" glyph-name="google-negative" data-tags="google+negative" d="M443.2 533.6c17.268 4.6 31.306 15.934 39.396 30.947 13.804 25.933 13.644 65.613-0.276 109.253-19.16 60-52.92 95.6-90.36 95.6-8.186-0.043-16.018-1.505-23.279-4.153-47.041-16.607-61.841-69.247-39.081-140.247 19.2-60 52.8-94.56 92-94.56 7.71 0.031 15.139 1.184 22.149 3.303zM476 351.52c-14.36 10.96-22.080 16.84-26.24 20.48h-20c-96.76 0-154.56-37.52-154.56-100.36 0-59.080 59.32-100.36 144.24-100.36 77.4 0 120 32 120 90.2 0.12 35.36-20.32 57.2-63.44 90.040zM0 992v-1024h1026v1024zM382.48 125.84c-144.88 0-191.040 80-191.040 127.6 0 66.64 61.92 142.48 228 148.32-7.68 10.2-24 34.88-24 60.48 0.342 13.072 3.162 25.396 8.007 36.644-5.687-1.044-13.127-1.444-21.247-1.444-72 0-146.12 48-146.12 141.44-0.080 91.44 77.84 169.12 201.28 169.12h185.44l-51.68-32h-57.72c38.24-28 60.96-69.32 60.96-116.28 0-121.52-90.92-117.32-90.92-176.68 0-52.4 122.52-75.52 122.52-190.32 0-78.6-78.6-166.88-223.48-166.88zM936 472h-128v-124h-64v124h-124v64h124v124h64v-124h128z" />
<glyph unicode="&#xe63a;" glyph-name="home" data-tags="home" d="M160 64h232.8l17.2 238.4h204.8l16.4-238.4h232.8v416h-704zM352 928l-288-352h896l-288 352z" />
<glyph unicode="&#xe63b;" glyph-name="information" data-tags="information" d="M613.2 170.4v453.6l-303.2-21.2v-118.4h101.2v-314l-101.2-6.8v-132.4h404v132.4zM512 704c65.2 0 112 50 112 112s-46.8 112-112 112c-65.2 0-112-50-112-112s46.8-112 112-112z" />
<glyph unicode="&#xe63c;" glyph-name="information-package" data-tags="information-package" d="M800 768v-672h-448v-96h544v768zM704 960h-577.2v-768h577.2v768zM608 576h-384v96h384v-96zM608 768h-384v96h384v-96z" />
<glyph unicode="&#xe63d;" glyph-name="instagram" data-tags="instagram" d="M828.8 896h-633.6c-52.4 0-94.8-42.8-94.8-96v-640c0-53.2 42.4-96 94.8-96h633.2c52.4 0 94.8 42.8 94.8 96v640c0.4 53.2-42 96-94.4 96zM512 640c87.6 0 158.4-71.6 158.4-160s-70.8-160-158.4-160c-87.6 0-158.4 71.6-158.4 160s70.8 160 158.4 160zM828.8 190.4c0-17.6-14-32-31.6-32h-570c-17.6 0-31.6 14.4-31.6 32v356.4h71.6c-5.2-20.4-8.4-44.8-8.4-66.8 0-141.6 113.6-256 253.2-256 140 0 253.2 114.4 253.2 256 0 22-3.2 46.4-8.4 66.8h71.6v-356.4zM828.8 673.6c0-17.6-14.4-32-32-32h-95.6c-17.6 0-32 14.4-32 32v95.6c0 17.6 14.4 32 32 32h95.6c17.6 0 32-14.4 32-32v-95.6z" />
<glyph unicode="&#xe63e;" glyph-name="instagram-negative" data-tags="instagram-negative" d="M736 480c0-125.2-100.4-226.4-224-226.4s-224 101.2-224 226.4c0 19.6 2.8 41.2 7.2 59.2h-63.2v-315.2c0-15.6 12.4-28.4 28-28.4h504c15.6 0 28 12.8 28 28.4v315.2h-63.6c4.8-18 7.6-39.6 7.6-59.2zM652 480c0-78.204-62.68-141.6-140-141.6s-140 63.396-140 141.6c0 78.204 62.68 141.6 140 141.6s140-63.396 140-141.6zM764 764h-84.8c-15.6 0-28.4-12.8-28.4-28.4v-84.8c0-15.6 12.8-28.4 28.4-28.4h84.8c15.6 0 28.4 12.8 28.4 28.4v85.2c0 15.6-12.8 28-28.4 28zM0 992v-1024h1024v1024h-1024zM876 196.8c0-46.8-37.6-84.8-84-84.8h-560c-46.4 0-84 38-84 84.8v566.4c0 46.8 37.6 84.8 84 84.8h560c46.4 0 84-38 84-84.8v-566.4z" />
<glyph unicode="&#xe63f;" glyph-name="legal-notice" data-tags="legal-notice" d="M309.6 204.4c67.6-28.4 130-43.2 180.8-43.2 51.6 0 79.2 16.8 79.2 49.6 0 16.8-8.4 30.8-24.4 40-19.2 11.6-27.6 14.8-103.6 43.2-67.6 25.2-92 38-117.2 60.4-29.6 25.2-46.4 63.2-46.4 106.8 0 62.4 25.2 104.8 87.6 148-54 42-72.8 75.6-72.8 134.8 0 115.2 83.6 184 224 184 74 0 146-16 213.6-47.6l-40-124.8c-61.2 28.4-116.4 43.2-160.4 43.2-43.2 0-66.4-16.8-66.4-48.8 0-16.8 8.4-30.8 24.4-41.2 18-11.6 18-11.6 102.4-43.2 66.4-25.2 95.2-40 119.2-60.4 28.4-24.4 45.6-63.2 45.6-105.6 0-63.6-25.2-105.6-88.8-148.8 56-42.4 74-76 74-135.2s-26.4-112-70.8-143.6c-40-27.6-90.8-40-164.8-40-81.2 0-162.8 16.8-234.4 47.6l39.2 124.8zM422.8 493.6c0-20 11.6-34 40-49.6 16.8-9.6 24.4-12.8 84.4-38 7.2-4.4 14.8-7.2 22-10.4 27.6 24.4 40 47.6 40 70.8 0 20-10.4 34-40 49.6-16.8 9.6-23.2 12.8-84.4 38-7.2 4.4-14.8 7.2-22 10.4-27.2-25.2-40-47.6-40-70.8z" />
<glyph unicode="&#xe640;" glyph-name="level-up" data-tags="level-up" d="M800 608l-423.16 11.080 101.44 134.64-46.28 46.28-240-240 240-240 46.28 46.28-101.44 134.64 322.84 8.44 8.32-317.36h81.12l10.88 416z" />
<glyph unicode="&#xe641;" glyph-name="linkedin" data-tags="linkedin" d="M141.2 622.8h156.4v-498.8h-156.4v498.8zM220.4 872c-50 0-90.4-40.4-90.4-90s40.4-90.4 90.4-90.4c49.6 0 90 40.4 90 90.4 0 49.6-40.4 90-90 90zM694.8 636c-75.6 0-127.2-43.2-148-80.4h-3.6v67.2h-148.8v-498.8h156.4v246.4c0 65.2 12.8 128.4 93.6 128.4 79.6 0 81.2-74.8 81.2-132.8v-242h156.4v273.6c0 134.4-29.6 238.4-187.2 238.4z" />
<glyph unicode="&#xe642;" glyph-name="linkedin-negative" data-tags="linkedin-negative" d="M0 992v-1024h1024v1024h-1024zM313.2 136h-145.6v466.4h145.2v-466.4zM240.4 666.4c-46.4 0-84 37.6-84 84.4 0 46.4 37.6 84 84 84s84-37.6 84-84c0-46.4-37.6-84.4-84-84.4zM856 136h-145.2v226.8c0 54 0 124-74.4 124-75.6 0-86-59.2-86-120v-230.8h-145.2v466.4h137.6v-65.2h2.4c19.2 38.4 66.4 76 137.2 76 147.2 0 174-96 174-222v-255.2z" />
<glyph unicode="&#xe643;" glyph-name="list-view" data-tags="list-view" d="M64 864h192v-192h-192v192zM352 864h608v-192h-608v192zM352 288h608v-192h-608v192zM64 288h192v-192h-192v192zM352 576h608v-192h-608v192zM64 576h192v-192h-192v192z" />
<glyph unicode="&#xe644;" glyph-name="location-pin" data-tags="location-pin" d="M822.4 617.6c0 171.2-138.8 310.4-310.4 310.4s-310.4-138.8-310.4-310.4c0-59.2 16.4-114.4 45.2-161.2v0l265.2-424.4 265.2 424.4c28.4 46.8 45.2 102 45.2 161.2zM512 497.6c-66.4 0-120 53.6-120 120s53.6 120 120 120 120-53.6 120-120c0-66-53.6-120-120-120z" />
<glyph unicode="&#xe645;" glyph-name="log-in" data-tags="log-in" d="M224 928v-96h608v-704h-608v-96h704v896zM266.4 286.4l46-46.4 240 240-240 240-46-46 108.4-144.4-342.8-8.8v-81.2l342.8-8.8z" />
<glyph unicode="&#xe646;" glyph-name="log-out" data-tags="log-out" d="M192 832h608v96h-704v-896h704v96h-608zM720 240l240 240-240 240-46.4-46 108.8-144.4-342.8-8.8v-81.2l342.8-8.8-108.8-144.4z" />
<glyph unicode="&#xe647;" glyph-name="menu" data-tags="menu" d="M64 864h896v-192h-896v192zM64 288h896v-192h-896v192zM64 576h896v-192h-896v192z" />
<glyph unicode="&#xe648;" glyph-name="minus" data-tags="minus" d="M192 576h640v-192h-640v192z" />
<glyph unicode="&#xe649;" glyph-name="more" data-tags="more" d="M512 336c-65.2 0-112-50-112-112s46.8-112 112-112c65.2 0 112 50 112 112s-46.8 112-112 112zM160 336c-65.2 0-112-50-112-112s46.8-112 112-112c65.2 0 112 50 112 112s-46.8 112-112 112zM864 336c-65.2 0-112-50-112-112s46.8-112 112-112c65.2 0 112 50 112 112s-46.8 112-112 112z" />
<glyph unicode="&#xe64a;" glyph-name="navigation-gyroscope" data-tags="navigation-gyroscope" d="M616.4 316.4l69.6-92.4h-348l69.6 92.4-29.6 29.6-154-154 154-154 29.6 29.6-69.6 92.4h348l-69.6-92.4 29.6-29.6 154 154-154 154zM252.4 783.2c-8.4 15.6-27.6 21.6-43.2 13.2l-120-64c-1.2-0.4-2-1.2-3.2-2-13.2-8.4-21.6-23.2-21.6-40v-82.4l96-51.2v140.8l79.2 42c15.2 8.4 20.8 28 12.8 43.6zM47.2 580.4c-15.6 8.4-34.8 2.4-43.2-13.2s-2.4-34.8 13.2-43.2l142.8-76v72.4l-112.8 60zM771.6 783.2c-8.4-15.6-2.4-34.8 13.2-43.2l79.2-42.4v-140.8l96 51.2v82.4c0 16.8-8.8 31.6-21.6 40-1.2 0.8-2 1.2-3.2 2l-120 64c-15.6 8-35.2 2.4-43.6-13.2zM1020.4 567.2c-8.4 15.6-27.6 21.6-43.2 13.2l-112.8-60v-72.4l143.2 76c15.2 8.4 20.8 27.6 12.8 43.2zM224 832c11.6 0 22.4-3.2 32-8.4v40.4h512v-40.4c9.6 5.6 20.4 8.4 32 8.4v0c10.4 0 20.8-2.4 30-7.6l2-1.2v104.8h-640v-104.4l2 1.2c9.2 4.8 19.6 7.2 30 7.2zM768 712.8v-200.8h-512v200.8c-0.8-0.4-1.2-0.8-2-1.2l-62-33.2v-230.4h640v230.4l-62 32.8c-0.8 0.8-1.2 1.2-2 1.6z" />
<glyph unicode="&#xe64b;" glyph-name="navigation-mouse" data-tags="navigation-mouse" d="M512 61.6l-129.2 97.2-30.8-30.8 160-160 160 160-30.8 30.8zM512 897.2l129.2-97.2 30.8 30.8-160 160-160-160 30.8-30.8zM160 638.8l-160-160 160-160 30.8 30.8-97.2 129.2 97.2 129.2zM864 638.8l-30.8-30.8 97.2-129.2-97.2-129.2 30.8-30.8 160 160zM512 768v0c-106 0-192-86-192-192v-192c0-106 86-192 192-192v0c106 0 192 86 192 192v192c0 106-86 192-192 192zM544 576c0-17.6-14.4-32-32-32v0c-17.6 0-32 14.4-32 32v64c0 17.6 14.4 32 32 32v0c17.6 0 32-14.4 32-32v-64z" />
<glyph unicode="&#xe64c;" glyph-name="newton_product-catalogue" data-tags="newton_product-catalogue" d="M0 64h1024v-96h-1024v96zM277.2 864h-277.2v-704h277.2v704zM186.8 256h-96v332h96v-332zM650.8 992h-277.6v-832h277.2v832zM560 256h-96v460h96v-460zM1024 736h-277.2v-576h277.2v576zM933.2 256h-96v204h96v-204z" />
<glyph unicode="&#xe64d;" glyph-name="outline" data-tags="outline" d="M512 750.4l88.8-199.6 217.2-22.8-162-146 45.6-213.6-189.6 108.8-189.2-109.2 45.2 214-162.4 146 217.2 22.8 89.2 199.6zM512 966.8l-148.8-333.6-363.2-38.4 271.6-244.4-76-357.6 316.4 182.8 316.4-182.8-76 357.6 271.6 244.4-363.2 38-148.8 334z" />
<glyph unicode="&#xe64e;" glyph-name="phone" data-tags="phone" d="M458.8 698.4c30 17.2 37.2 52 17.2 86.8l-84.4 146.4c-20 34.4-53.6 45.6-83.6 28.4-61.2-35.2-106.4-78.4-131.2-105.6-4.8-5.6-8.4-12.8-9.2-20.8-14.8-166.8 19.6-339.6 109.6-495.6s222.4-272.4 374.4-342.8c7.2-3.2 15.2-4 22.4-2.4 35.6 8 95.6 25.6 156.8 60.8 30 17.2 37.2 52 17.2 86.8l-84.8 146.4c-20 34.4-53.6 45.6-83.6 28.4l-119.2-68.8c-55.2 48-103.6 106-142.4 173.2s-64.8 138-78.8 210l119.6 68.8z" />
<glyph unicode="&#xe64f;" glyph-name="play" data-tags="play" d="M128 32v896l778-448-778-448z" />
<glyph unicode="&#xe650;" glyph-name="plus" data-tags="plus" d="M864 550.4l-263.2 18.4-18.4 263.2h-140.8l-18.4-263.2-263.2-18.4 1.2-140.8 262-18.4 18.4-263.2h140.8l18.4 263.2 263.2 18.4z" />
<glyph unicode="&#xe651;" glyph-name="print" data-tags="print" d="M256.4 192h511.6v-160h-511.6v160zM40 480l24.4-348.4h96v156.4h703.6v-156.4h96l24.4 348.4zM768 928h-312.8l-199.2-199.2v-152.8h512z" />
<glyph unicode="&#xe652;" glyph-name="rating" data-tags="rating" d="M733.2 360.8l250 224.8-334.4 35.2-136.8 307.2-136.8-307.2-334.4-35.2 250-224.8-70-328.8 291.2 168 291.2-168-70 328.8z" />
<glyph unicode="&#xe653;" glyph-name="region" data-tags="region" d="M64 992h96v-1024h-96v1024zM736 895.6c-62.8 45.6-140.4 72.4-224 72.4-98.4 0-188-37.2-256-98v-480c68 61.2 157.6 98 256 98 83.6 0 161.2-26.8 224-72.4l224 64.4v480l-224-64.4z" />
<glyph unicode="&#xe655;" glyph-name="rss" data-tags="rss-feed" d="M128 928v-144c183.6 0 356.4-71.6 486.4-201.6s201.6-302.8 201.6-486.4h144c0 459.6-372.4 832-832 832zM352 176c0-79.529-64.471-144-144-144s-144 64.471-144 144c0 79.529 64.471 144 144 144s144-64.471 144-144zM136 656v-144c226-4.4 408-188.8 408-416h144c0 306.8-246.4 555.6-552 560z" />
<glyph unicode="&#xe656;" glyph-name="scaling" data-tags="scaling" d="M310 824c43.6 0 73.6 33.6 73.6 84s-29.6 84-73.6 84c-43.6 0-73.6-33.6-73.6-84s30-84 73.6-84zM260.4-32h99.2l23.2 336h-145.6zM411.6 740.4v0l-51.6 3.6-50-50-50 50-51.6-3.6c-28.4-2-47.6-24.8-48.4-58.4 0 0 0 0 0 0 0-13.2 0-53.6 0-118 0-90.4 30-180 30-180h240c0 0 30 89.6 30 180 0 64.4 0 104.8 0 118 0 0 0 0 0 0-0.8 33.6-20 56.4-48.4 58.4zM640 64h256v-96h-256v96zM640 960h256v-96h-256v96zM640 288h160v-96h-160v96zM640 512h256v-96h-256v96zM640 736h160v-96h-160v96z" />
<glyph unicode="&#xe657;" glyph-name="search" data-tags="search" d="M320 992c-176.4 0-320-143.6-320-320s143.6-320 320-320 320 143.6 320 320-143.6 320-320 320zM320 480c-106 0-192 86-192 192s86 192 192 192c106 0 192-86 192-192s-86-192-192-192zM676.4 439.6l-124-124 302-347.6 169.6 169.6z" />
<glyph unicode="&#xe658;" glyph-name="share-ios" data-tags="share-ios" d="M831.2 480l-24.8-352h-588.8l-24.8 352h-96l31.2-448h768l31.2 448zM462.4 726.8l9.2-342.8h80.8l9.2 342.8 144-108.4 46.4 46-240 240-240-240 46.4-46z" />
<glyph unicode="&#xe659;" glyph-name="share-newton-android" data-tags="share-newton-android" d="M856 304c-48.4 0-92-20.4-122.4-53.2l-400 200c1.6 9.6 2.4 19.2 2.4 29.2s-0.8 19.6-2.4 29.2l400 200c30.4-32.8 74-53.2 122.4-53.2 92.8 0 168 75.2 168 168s-75.2 168-168 168-168-75.2-168-168c0-10 0.8-19.6 2.4-29.2l-400-200c-30.4 32.8-74 53.2-122.4 53.2-92.8 0-168-75.2-168-168s75.2-168 168-168c48.4 0 92 20.4 122.4 53.2l400-200c-1.6-9.6-2.4-19.2-2.4-29.2 0-92.8 75.2-168 168-168s168 75.2 168 168c0 92.8-75.2 168-168 168z" />
<glyph unicode="&#xe65a;" glyph-name="shopping-cart" data-tags="shopping-cart" d="M1024 734.4h-738.4l-32 225.6h-253.6v-96h170.4l85.6-609.6 738 51.6 30 428h-0.4zM512 84c0-53.019-42.981-96-96-96s-96 42.981-96 96c0 53.019 42.981 96 96 96s96-42.981 96-96zM928 84c0-53.019-42.981-96-96-96s-96 42.981-96 96c0 53.019 42.981 96 96 96s96-42.981 96-96z" />
<glyph unicode="&#xe65b;" glyph-name="show-location" data-tags="show-location" d="M640 512h-161.2v-192h174.8zM478.8 256v-192h192.4l-13.2 192zM96 64h318.8v192h-305.2zM914.4 256h-192.4l13.6-192h192.4zM896.8 512h-192.4l13.2-192h192.4zM274.4 958c-92 0-166.4-74.4-166.4-166 0-31.6 8.8-61.2 24.4-86.4v0l142-227.2 142 227.2c15.2 25.2 24.4 54.8 24.4 86.4-0.4 91.6-74.8 166-166.4 166zM274.4 721.6c-38.8 0-70.4 31.6-70.4 70.4s31.6 70.4 70.4 70.4c38.8 0 70.4-31.6 70.4-70.4-0.4-38.8-31.6-70.4-70.4-70.4zM274.4 418v0l-59.2 94h-88l-13.2-192h300.8v192h-81.6z" />
<glyph unicode="&#xe65c;" glyph-name="single-arrow-backward" data-tags="single-arrow-backward" d="M704 737.96v-515.92l-448 257.96 448 257.96z" />
<glyph unicode="&#xe65d;" glyph-name="single-arrow-down" data-tags="single-arrow-down" d="M254 672h516l-258-448z" />
<glyph unicode="&#xe65e;" glyph-name="single-arrow-forward" data-tags="single-arrow-forward" d="M320 222.040v515.92l448-257.96-448-257.96z" />
<glyph unicode="&#xe65f;" glyph-name="single-arrow-up" data-tags="single-arrow-up" d="M769.96 288h-515.92l257.96 448 257.96-448z" />
<glyph unicode="&#xe660;" glyph-name="slider" data-tags="slider" d="M0.8 864v-768h1024v768h-1024zM391.6 299.2l-43.2-43.2-224 224 224 224 43.2-43.2-136.4-180.8 136.4-180.8zM672.8 256l-43.2 43.2 136.4 180.8-136.4 180.8 43.2 43.2 224-224-224-224z" />
<glyph unicode="&#xe661;" glyph-name="social-feed" data-tags="social-feed" d="M248.4 576h-248.4l26.8-384h96v-160l160 160h218l11.2 160.4h-248zM1024 928h-704l33.6-480h356.8l184-184v184h96z" />
<glyph unicode="&#xe663;" glyph-name="audio-on" data-tags="speakers-on" d="M719.72 690.84l-69.88-69.88c51.534-27.273 86.047-80.548 86.047-141.884 0-60.284-33.34-112.781-82.587-140.059l68.739-69.977c66.808 46.79 109.95 123.409 109.95 210.105 0 87.684-44.132 165.061-111.396 211.13zM856.8 828l-68.36-68.44c85.142-64.859 139.537-166.302 139.537-280.449 0-113.139-53.439-213.798-136.452-278.111l67.475-69c101.101 82.678 165.123 207.418 165.123 347.111 0 140.688-64.937 266.209-166.473 348.225zM0 351.12l96-6.72v269.4l-96-6.68v-256zM192 344.4l384-185.28v640l-384-185.32v-269.4z" />
<glyph unicode="&#xe664;" glyph-name="subscribe" data-tags="subscribe" d="M0 64h512v-96h-512v96zM514 212.4l164.8 87.6-164.8 98.8zM894 992l-165.6-236.4-164.4-273.6 164.8-98.8 164 273.6 131.2 257.2z" />
<glyph unicode="&#xe665;" glyph-name="theenergyblog" data-tags="theenergyblog" d="M862.4 580.8h-50.8c-26.8 0-48.4 21.6-48.4 48.4 0 136.4-111.6 250.4-248 250.4h-154c-136.4 0-248-111.6-248-248v-304c0-136.4 111.6-248 248-248h302c136.4 0 248 111.6 248 248v204.4c0 27.2-22 48.8-48.8 48.8zM358 678h184c26.8 0 48.4-21.6 48.4-48.4s-21.6-48.4-48.4-48.4h-184c-26.8 0-48.4 21.6-48.4 48.4s21.6 48.4 48.4 48.4zM666 282.8h-308c-26.8 0-48.4 21.6-48.4 48.4s21.6 48.4 48.4 48.4h308c26.8 0 48.4-21.6 48.4-48.4 0-26.4-21.6-48.4-48.4-48.4z" />
<glyph unicode="&#xe666;" glyph-name="theenergyblog-negative" data-tags="theenergyblog-negative" d="M652 395.2h-280c-28.8 0-52-23.2-52-52s23.2-52 52-52h280c28.8 0 52 23.2 52 52s-23.2 52-52 52zM373.6 570.8h149.2c29.6 0 53.6 22.4 53.6 50s-24 50-53.6 50h-149.2c-29.6 0-53.6-22.4-53.6-50s24-50 53.6-50zM0 992v-1024h1024v1024h-1024zM879.2 340c0-125.6-102.8-228-228-228h-278c-125.6 0-228 102.8-228 228v280c0 125.6 102.8 228 228 228h141.6c125.6 0 228-105.2 228-230.4 0-24.8 20-44.8 44.8-44.8h46.8c24.8 0 44.8-20 44.8-44.8v-188z" />
<glyph unicode="&#xe667;" glyph-name="tile-view" data-tags="tile-view" d="M746.8 864h277.2v-192h-277.2v192zM373.2 864h277.2v-192h-277.2v192zM0 864h277.2v-192h-277.2v192zM746.8 288h277.2v-192h-277.2v192zM0 288h277.2v-192h-277.2v192zM373.2 288h277.2v-192h-277.2v192zM746.8 576h277.2v-192h-277.2v192zM373.2 576h277.2v-192h-277.2v192zM0 576h277.2v-192h-277.2v192z" />
<glyph unicode="&#xe668;" glyph-name="twitter" data-tags="twitter" d="M334.4 90.8c-110.8 0-214.4 32.4-301.2 88.4 15.2-2 31.2-2.8 46.8-2.8 92 0 176.8 31.6 244 84-86 1.6-158.4 58.4-183.6 136.4 12-2.4 24.4-3.6 36.8-3.6 18 0 35.2 2.4 51.6 6.8-90 18-157.6 97.6-157.6 192.8 0 0.8 0 1.6 0 2.4 26.4-14.8 56.8-23.6 88.8-24.4-52 35.2-86.8 95.6-86.8 163.6 0 36 9.6 69.6 26.4 98.8 97.2-118.8 242-197.2 405.2-205.2-3.2 14.4-5.2 29.2-5.2 44.8 0 108.4 88 196.4 196.4 196.4 56.4 0 107.6-24 143.6-62 44.8 8.8 86.8 25.2 124.8 47.6-14.8-46-46-84.4-86.4-108.8 39.6 4.8 77.6 15.2 112.8 30.8-26.4-39.6-59.6-74-98-101.6 0.4-8.4 0.4-16.8 0.4-25.6 0.4-259.2-197.6-558.8-558.8-558.8z" />
<glyph unicode="&#xe669;" glyph-name="twitter-negative" data-tags="twitter-negative" d="M818 616.4c0 0 0 0 0 0 0 1.6 0 3.2 0 0zM0 992v-1024h1024v1024h-1024zM818 616.4c0-2 0-3.6 0 0 0-208.4-158.8-448.4-448.4-448.4-88.8 0-172 26-241.6 70.8 12.4-1.6 24.8-2 37.6-2 74 0 141.6 25.2 195.6 67.6-68.8 1.2-127.2 46.8-147.2 109.6 9.6-2 19.6-2.8 29.6-2.8 14.4 0 28.4 2 41.6 5.6-72 14.4-126.4 78-126.4 154.4 0 0.8 0 1.2 0 2 21.2-12 45.6-18.8 71.2-19.6-42 27.6-70 75.6-70 130.4 0 28.8 7.6 56 21.2 79.2 78-95.2 194-158 325.2-164.8-2.8 11.6-4 23.6-4 36 0 87.2 70.4 157.6 157.6 157.6 45.2 0 86.4-19.2 115.2-49.6 34.8-4.8 57.2 0.4 100.4 28.4-11.6-36.8-30-70.8-69.2-87.2 31.2-4.8 69.6 8 98 20.4-18-41.6-50.8-70.8-86.4-87.6z" />
<glyph unicode="&#xe66a;" glyph-name="user-account" data-tags="user-account" d="M512 560c87.6 0 146.8 67.2 146.8 168s-59.6 168-146.8 168c-87.6 0-147.2-67.2-147.2-168 0.4-100.8 59.6-168 147.2-168zM832 348c-1.2 71.2-42.4 120-103.2 124v0l-110 7.6c0 0 0 0 0 0l-106.8-106.4-106.8 106.8c0 0 0 0 0 0v0l-110-7.6c-60.8-4.4-101.6-53.2-103.2-124.4 0 0 0 0 0 0 0-28.4 0-178.4 0-316h640c0 137.6 0 287.6 0 316 0-0.4 0 0 0 0z" />
<glyph unicode="&#xe66b;" glyph-name="video-chat" data-tags="video-chat" d="M64 864l40.4-576h431.6l256-256v256h128l40 576h-896zM396.8 416v320l278.4-160-278.4-160z" />
<glyph unicode="&#xe66c;" glyph-name="warning" data-tags="warning" d="M512 256c-65.2 0-112-50-112-112s46.8-112 112-112 112 50 112 112-46.8 112-112 112zM599.6 352l40.4 576h-256l40.4-576z" />
<glyph unicode="&#xe66d;" glyph-name="youtube" data-tags="youtube" d="M1013.6 660.8c0 0-10 70.4-40.8 101.6-38.8 40.8-82.4 40.8-102.8 43.2-143.2 10.4-358.4 10.4-358.4 10.4h-0.4c0 0-214.8 0-358.4-10.4-20-2.4-63.6-2.4-102.8-43.2-29.6-30.8-39.6-101.6-39.6-101.6s-10.4-82.8-10.4-165.6v-77.6c0-82.8 10.4-165.6 10.4-165.6s10-70.4 40.8-101.6c38.8-40.8 90-39.6 112.8-43.6 82-8 348-10.4 348-10.4s215.2 0.4 358.4 10.8c20 2.4 63.6 2.4 102.8 43.2 30.8 31.2 40.8 101.6 40.8 101.6s10.4 82.8 10.4 165.6v77.6c-0.4 82.8-10.8 165.6-10.8 165.6zM386.8 302.8v328.4l316-164.8-316-163.6z" />
<glyph unicode="&#xe66e;" glyph-name="youtube-negative" data-tags="youtube-negative" d="M0 992v-1024h1024v1024h-1024zM854 454c0-55.2-6.8-110.8-6.8-110.8s-6.8-47.2-27.2-68c-26-27.2-55.2-27.2-68.4-28.8-95.6-6.8-239.6-7.2-239.6-7.2s-178 1.6-232.4 6.8c-15.2 2.8-49.6 2-75.6 29.2-20.4 20.8-27.2 68-27.2 68s-6.8 55.2-6.8 110.8v52c0 55.2 6.8 110.8 6.8 110.8s6.8 47.2 27.2 68c26 27.2 55.2 27.2 68.4 28.8 95.6 6.8 239.2 6.8 239.2 6.8h0.4c0 0 143.6 0 239.2-6.8 13.2-1.6 42.4-1.6 68.4-28.8 20.4-20.8 27.2-68 27.2-68s6.8-55.2 6.8-110.8v-52zM384 331.2l299.6 155.6-300 156.4z" />
<glyph unicode="&#xe66f;" glyph-name="zoom" data-tags="zoom" d="M620.4 928v-65.6l178.8-24.8-189.2-199.6 60-60 199.6 189.2 24.8-178.8h65.6v339.6zM869.6 192.8l-199.6 189.2-60-60 189.2-199.6-178.8-24.8v-65.6h339.6v339.6h-65.6zM354 382l-199.6-189.2-24.8 178.8h-65.6v-339.2h339.6v65.2l-178.8 25.2 188.8 199.6zM403.6 862.8v65.6h-339.6v-339.6h65.6l24.8 178.8 200-189.2 59.6 59.6-189.2 199.6z" />
<glyph unicode="&#xe900;" glyph-name="weibo" data-tags="weibo" d="M736.4 478c-13.2 4-22 6.8-15.6 24.4 14.8 38.4 16.4 71.2 0.4 94.4-30.4 44-113.2 41.6-208 1.2 0 0-30-13.2-22 10.8 14.4 48 12.4 87.6-10.4 110.8-51.6 52.4-188.4-2-305.6-121.6-88-89.2-139.2-184-139.2-266 0-156.8 197.6-262 390.8-262 253.6 0 422 159.6 422 278.4 0.8 72-58.8 113.2-112.4 129.6v0zM427.6 140.4c-154.4-15.6-287.6 54.8-297.2 156.8-10 102 107.2 196.8 261.2 212 154.4 15.6 287.6-54.8 297.2-156.4 10-102-106.8-197.2-261.2-212.4v0zM988 606c0 158.4-128.8 286.8-286.8 286.8-18.8 0-33.6-15.2-33.6-33.6s15.2-33.6 33.6-33.6c121.6 0 220-98.4 220-220 0-18.8 15.2-33.6 33.6-33.6 18.4 0.4 33.2 15.6 33.2 34v0zM854.8 610.8c-15.6 74.4-74.4 133.6-148.8 148.8-18 4-35.6-8-39.6-26s8-35.6 26-39.6c48.4-10 86.8-48.4 96.8-96.8 4-18 21.6-30 39.6-26 18.4 4 30 21.6 26 39.6v0zM348.4 409.6c-62-12.4-104-64.8-93.6-116.4s69.2-83.6 131.6-71.2c62 12.4 104 64.8 93.6 116.4-10.8 52-69.6 83.6-131.6 71.2v0z" />
<glyph unicode="&#xe901;" glyph-name="weibo-negative" data-tags="weibo-negative" d="M414.8 503.6c-124.4-12.8-218.8-92-210.8-176.8 8-85.2 115.6-143.6 240-130.8s218.8 92 210.8 177.2c-8 84.8-115.6 143.2-240 130.4zM410.8 264c-50.4-10.4-97.6 16-106 59.2s25.6 86.4 75.6 97.2c50 10.4 97.6-16 106-59.2 8.4-43.6-25.6-86.8-75.6-97.2zM0 992v-1024h1024v1024h-1024zM443.2 136.8c-156 0-315.2 87.6-315.2 218.4 0 68.4 41.2 147.6 112 222.4 94.8 99.6 205.2 145.2 246.8 101.2 18-19.2 20-52.4 8.4-92.4-6.4-20 18-9.2 18-9.2 76.4 33.6 143.6 35.6 168-1.2 12.8-19.6 11.6-46.8-0.4-78.8-5.6-14.8 2-17.2 12.4-20.4 43.2-14 91.2-48 91.2-108.4-0.4-98.4-136.4-231.6-341.2-231.6zM767.6 555.2c-14.4-3.2-28.8 6.8-32 21.6-8 40.4-38.8 72.4-78 80.8-14.4 3.2-24 18-21.2 32.8 3.2 15.2 17.2 24.8 32 21.6 60-12.8 107.6-62 120-124 3.2-14.8-6-29.6-20.8-32.8zM869.2 556c-14.8 0-26.8 12.4-26.8 28 0 101.2-79.2 183.2-177.6 183.2-14.8 0-26.8 12.8-26.8 28s12 28 26.8 28c127.6 0 231.2-107.2 231.2-239.2 0-15.6-12-28-26.8-28z" />
<glyph unicode="&#xe902;" glyph-name="youku" data-tags="youku" d="M706.8 483.6c-15.6 19.2-116.8 106-302.8 182.4 0 0-8.4 3.2-13.2-2.4-6.4-7.6-71.6-146.8-3.6-357.6 0.8 0 1.6-8.8 16.4-3.6s174 69.2 302 170c0.4 0.4 5.2 6.4 1.2 11.2zM508 912c-236.4 0-428-191.6-428-428s191.6-428 428-428 428 191.6 428 428-191.6 428-428 428zM508 231.6c-139.6 0-252.4 113.2-252.4 252.4s112.8 252.4 252.4 252.4 252.4-113.2 252.4-252.4-112.8-252.4-252.4-252.4z" />
<glyph unicode="&#xe903;" glyph-name="youku-negative" data-tags="youku-negative" d="M508 708c-123.6 0-224-100.4-224-224s100.4-224 224-224 224 100.4 224 224-100.4 224-224 224zM684.4 483.6c4-4.4-0.4-9.6-0.8-9.6-113.6-89.6-255.2-146.8-268-151.2s-14 3.2-14.4 3.2c-60.4 187.2-2.4 310.4 3.2 317.2 4 5.2 11.6 2 11.6 2 164.8-67.2 254.4-144.4 268.4-161.6zM0 992v-1024h1024v1024h-1024zM508 104c-210 0-380 170-380 380s170 380 380 380 380-170 380-380-170-380-380-380z" />
<glyph unicode="&#xe904;" glyph-name="support" data-tags="support" d="M1004 488.4c0 60.4-19.6 116.4-52.4 162h-74c0 155.6-63.2 341.2-364.8 341.2s-365.2-185.2-365.2-340.8h-74.4c-32.8-45.6-52.4-101.6-52.4-162.4s19.6-116.4 52.4-162h176.8v324.4c0 165.2 80.8 238.8 262.4 238.8s262.4-73.6 262.4-238.8v0-324c0-75.6-53.2-133.6-139.6-161.2-21.2 44.8-66.4 76-122.8 76-79.6 0-136.4-61.2-136.4-136.4 0-75.6 56.8-136.4 136.4-136.4 63.6 0 112.8 39.2 130 93.2 142.8 36.8 235.2 135.6 235.2 265.2h74c33.2 44.8 52.4 100.8 52.4 161.2z" />
<glyph unicode="&#xe905;" glyph-name="service" data-tags="service" d="M608 960v-416h416v416h-416zM819.2 895.6c20.8 0 36-16 36-36s-14.8-36-36-36c-20.8 0-36 16-36 36 0.4 20 15.2 36 36 36zM884 608.4h-129.6v42.4l32.4 2.4v100.4h-32.4v38l97.2 6.8v-145.2l32.4-2.4v-42.4zM304 532c83.2 0 139.6 64 139.6 159.6s-56.4 159.6-139.6 159.6c-83.2 0-139.6-64-139.6-159.6s56.4-159.6 139.6-159.6zM510 410.4v0l-104.4 7.6c0 0 0 0 0 0l-101.6-101.2-101.2 101.2-104.4-7.2v-0.4c-57.6-4-96.8-50-98-118v0c0-26.8 0-162 0-292.4h608c0 130.4 0 265.6 0 292.4v0c-1.6 68-40.8 114-98.4 118z" />
<glyph unicode="&#xe906;" glyph-name="career" data-tags="career" d="M1024 992v-339.6h-65.48l-25.16 178.84-199.6-189.4-60 60 189.4 199.6-178.76 25.080v65.48zM509.24 412.88v0l-65.64 5.52 60.88-75.68-164.48-172.92 59 250.2h-191.36l59.44-250.4-164.68 173.2 61 75.2-65.4-4.96c-57.76-4.24-96.64-50.2-98-117.92v0-295.12h607.16v294.88c-0.004 0.030-0.007 0.065-0.007 0.1s0.002 0.070 0.007 0.104c-1.32 67.756-40.2 113.716-97.92 117.796zM304 532.28c83.16 0 139.76 64 139.76 159.72s-56.44 159.64-139.76 159.64-139.56-63.92-139.56-159.64 56.56-159.72 139.56-159.72z" />
<glyph unicode="&#xe907;" glyph-name="clock" data-tags="clock" d="M511.48 992c-282.483 0-511.48-228.997-511.48-511.48s228.997-511.48 511.48-511.48c282.483 0 511.48 228.997 511.48 511.48s-228.997 511.48-511.48 511.48zM511.48 64.92c-229.53 0-415.6 186.070-415.6 415.6s186.070 415.6 415.6 415.6c229.53 0 415.6-186.070 415.6-415.6 0-0.012 0-0.026 0-0.040 0-229.507-186.053-415.56-415.56-415.56-0.014 0-0.028 0-0.042 0zM559.48 496.36l208.52-209.24-68-68-236.36 237.24h0.36v343.64h95.44z" />
<glyph unicode="&#xe908;" glyph-name="conference" data-tags="conference" d="M72 558.4c0 45.12 26.8 75.28 66 75.28s66-30.16 66-75.28-26.8-75.28-66-75.28-66 30.16-66 75.28zM276 275.68q0 4.6 0 9.24v103.64c-0.56 30.8-18.24 51.68-44.44 53.52v0l-47.56 3.4-46-46-46 46-47.4-3.32c-26.2-1.84-44-22.76-44.44-53.52v-103.64c0.673-44.681 6.527-87.676 16.986-128.833 64.014 55.033 153.494 95.233 258.854 119.513zM512 532.24c39.2 0 65.88 30.16 65.88 75.28s-26.68 75.28-65.88 75.28-65.88-30.12-65.88-75.24 26.68-75.32 65.88-75.32zM512 301.52c0.069 0 0.151 0 0.232 0 48.543 0 96.376-3.038 143.321-8.933-4.313 13.933-3.553 27.653-3.553 41.453v103.64c-0.56 30.8-20.24 51.72-46.48 53.56v0l-47.4 3.32-46.12-45.92-46 46-47.4-3.32c-26.2-1.84-45.88-22.76-46.44-53.52v-103.64c0-13.76 0.76-27.44 2.040-40.76 40.793 5.171 87.994 8.122 135.883 8.122 0.673 0 1.347-0.001 2.020-0.002zM886 483.12c39.2 0 65.88 30.16 65.88 75.28s-26.68 75.28-65.88 75.28-66-30.16-66-75.28 26.8-75.28 66-75.28zM1024 388.56c-0.56 30.8-18.24 51.68-44.44 53.52v0l-47.56 3.4-46-46-46 46-47.4-3.32c-26.2-1.84-44-22.76-44.44-53.52v-103.64q0-4.6 0-9.2c105.24-24.28 194.76-64.48 259.56-115.6 9.643 37.216 15.536 80.104 16.274 124.246l0.006 104.114zM885.72 124.96c-99 52-231.72 80.56-373.68 80.56s-274.68-28.6-373.68-80.56c-83.84-43.96-133.52-100.72-138-156.96h1023.28c-4.48 56.24-54.16 113-137.96 156.96z" />
<glyph unicode="&#xe909;" glyph-name="filter" data-tags="filter" d="M112 832h799.24l0.76-128-288-272v-336l-224 112v224l-288 272v128z" />
<glyph unicode="&#xe90a;" glyph-name="investor-relations" data-tags="investor-relations" d="M23.2 638.28l-7.2 4-16-86.28 4.4-1.88c40.88-17.68 73.84-24.24 128-25.2v-48.92h47.6v50.64c94 9.36 142.56 50.080 142.56 124.92 0 44-15.040 73.8-47.44 93.6-19.12 11.24-41.6 19.24-87.72 30.84v82.48c32.189-2.859 61.869-10.299 89.499-21.697l4.501-1.903 19.2 82.76-5.4 1.64c-31.728 10.388-68.534 17.586-106.615 20.126l-1.385 48.594h-51.2v-48.6c-28.36-1.84-45.88-5.4-62.16-12-45-17.64-70.8-57.48-70.8-109.12 0-43.6 17.64-73.56 55.56-94.28 16.48-8.76 36.76-16.44 74-28v-90.8c-40.25 0.071-77.965 10.855-110.468 29.65zM180 686.52c33.36-9.68 42.16-18.32 42.16-37.2 0-23.44-14.36-34.88-42.16-38.44zM103.44 828c0 18.84 8.48 28 32.56 32v-66.84c-28.56 9.080-32.56 18.44-32.56 34.84zM0 228.64l418.4 278.72 157.88-125.48 317.68 264.76-62.56 61.36h192.6v-190.96l-61.68 61.52-384.52-320.44-164.24 130.52-413.56-275.44zM752-32h272v504.72l-272-224.44zM408.6 240.44l-40.6-25.76v-246.68h288v199.36l-77.32-62.080zM0-32h272v181.36l-272-181.36z" />
<glyph unicode="&#xe90b;" glyph-name="press" data-tags="press" d="M1024 64v-96h-1024v96zM687.8 642.68c82.64 0 138.84 63.56 138.84 158.68s-56.2 158.64-138.84 158.64-138.84-63.56-138.84-158.68 56.16-158.64 138.84-158.64zM992 416.64s0 0 0 0c-1.2 67.44-41.96 113.2-99.4 117.24v0l-104 7.24-100.72-100.72-100.76 100.72-104-7.24c-57.36-4-97.68-49.8-98.92-117.24v0-256.64h607.8zM188.56 336l-90.88 30.36-65.68-206.36h90.28zM280.76 462l-176.44 58.84-30.48-91.16 176.44-58.96zM266.72 522c34.821 13.965 58.963 47.437 58.963 86.548 0 51.362-41.638 93-93 93s-93-41.638-93-93c0-17.958 5.090-34.728 13.906-48.945z" />
<glyph unicode="&#xe90c;" glyph-name="question" data-tags="question" d="M624 144c0-61.84-46.68-112-112-112s-112 50.16-112 112 46.68 112 112 112 112-50.16 112-112zM760.2 870.24q-71.48 64.88-208.2 64.88-133.92 0-267.24-69.68l53.28-133.44q108.68 61.96 185.56 62 46.84 0 74.16-22.52t27.32-60.96c0.006-0.352 0.009-0.767 0.009-1.184 0-20.039-7.397-38.35-19.61-52.351q-19.439-22.745-85.479-68.345-46.84-33.040-61.84-46.52c-9.655-8.652-17.68-18.885-23.716-30.329-10.684-20.591-10.124-56.031-10.124-106.871v-52.92h175.28v24.6c0 36.44 0.68 61.76 9.88 76s33.84 34.72 73.88 61.56q78.68 52.24 109.28 97t30.64 107.8q-0.040 93.040-63.080 151.28z" />
<glyph unicode="&#xe90d;" glyph-name="quotation" data-tags="quotation" d="M451.040 653.4c0-131.6-89.84-305.040-280-530.64l-81.4 60.56c81.48 112.68 131.6 211 152.48 300.68-98.12 21.080-146.12 79.56-146.12 171.48 0 108.52 70.92 181.76 177.48 181.76s177.56-73.24 177.56-183.84zM749.8 837.4c-106.56 0-179.68-73.12-179.68-181.76 0-92 50.16-150.44 146.24-171.32-18.8-89.84-71.040-190.12-150.4-300.84l79.4-60.6q282.040 332 282.040 532.76c0 108.36-71.040 181.6-177.6 181.6z" />
<glyph unicode="&#xe90e;" glyph-name="rectification" data-tags="rectification" d="M512 992c-282.483 0-511.48-228.997-511.48-511.48s228.997-511.48 511.48-511.48c282.483 0 511.48 228.997 511.48 511.48s-228.997 511.48-511.48 511.48zM512 64.92c-229.53 0-415.6 186.070-415.6 415.6s186.070 415.6 415.6 415.6c229.53 0 415.6-186.070 415.6-415.6 0-0.012 0-0.026 0-0.040 0-229.507-186.053-415.56-415.56-415.56-0.014 0-0.028 0-0.042 0zM245.32 212.92l369.16 165.28 165.24 369-369.16-165.28zM512.52 546.64c36.738 0 66.52-29.782 66.52-66.52s-29.782-66.52-66.52-66.52c-36.696 0-66.452 29.714-66.52 66.393 0 36.722 29.764 66.487 66.48 66.487 0.014 0 0.028 0 0.042 0z" />
<glyph unicode="&#xe90f;" glyph-name="settings" data-tags="settings" d="M992 384v192h-156c-7.495 25.042-16.7 46.69-27.956 67.047l111.076 108.473-135.6 135.76-110.2-110.2c-18.627 10.327-40.279 19.48-62.941 26.305l-2.379 156.615h-192v-156c-25.042-7.468-46.692-16.647-67.054-27.877l-108.466 111.157-135.76-135.76 110.2-110.2c-10.327-18.627-19.48-40.279-26.305-62.941l-156.615-2.379v-192h156c7.495-25.042 16.7-46.69 27.956-67.047l-111.236-108.473 135.76-135.76 110.2 110.2c18.627-10.327 40.279-19.48 62.941-26.305l2.379-156.615h192v156c25.042 7.47 46.693 16.649 67.055 27.877l108.465-111.077 135.76 135.76-110.2 110.2c10.321 18.603 19.474 40.228 26.303 62.861zM512 320c-88.366 0-160 71.634-160 160s71.634 160 160 160c88.366 0 160-71.634 160-160s-71.634-160-160-160z" />
<glyph unicode="&#xe910;" glyph-name="tickets" data-tags="tickets" d="M1024 636v132h-272v-48.2h-96v48.2h-656v-132c86.156 0 156-69.844 156-156s-69.844-156-156-156v-132h656v48h96v-48h272v132c-86.156 0-156 69.844-156 156s69.844 156 156 156zM752 335.68h-96v96.32h96zM752 527.68h-96v96.32h96z" />
<glyph unicode="&#xe911;" glyph-name="trade-fair" data-tags="trade-fair" d="M535.64 721.88c0 46.84 27.64 78.12 68.36 78.12s68.32-31.28 68.32-78.12-27.64-78.080-68.32-78.080-68.36 31.28-68.36 78.080zM96 896h832v-480h96v576h-1024v-576h96zM503.16 590.32c-28.24-2-47.32-24.52-48-57.72v-116.6h296.84c0 54.4 0.72 105.28 0.72 116.52h-0.32c-0.6 33.2-19.36 55.72-47.64 57.72v0l-51.16 3.76-49.6-49.6-49.6 49.6-51.12-3.56zM0 320h1024v-352h-1024zM96 128h448v96h-448z" />
<glyph unicode="&#xe912;" glyph-name="webinar" data-tags="webinar" d="M976 896h-928c0 0-0.001 0-0.001 0-26.383 0-47.795-21.286-47.999-47.621v-576.379c0-26.51 21.49-48 48-48h384v-96h-112v-96h384v96h-112v96h384c26.51 0 48 21.49 48 48v576.36c-0.204 26.354-21.616 47.64-47.999 47.64 0 0-0.001 0-0.001 0zM928 320h-832v480.36h832zM666.6 560l-250.6-144v288z" />
<glyph unicode="&#xe913;" glyph-name="aparat-negative" data-tags="aparat-negative" d="M704.6 331.84c0-52.865-42.855-95.72-95.72-95.72s-95.72 42.855-95.72 95.72c0 52.865 42.855 95.72 95.72 95.72s95.72-42.855 95.72-95.72zM552.76 480c0-23.461-19.019-42.48-42.48-42.48s-42.48 19.019-42.48 42.48c0 23.461 19.019 42.48 42.48 42.48s42.48-19.019 42.48-42.48zM463.12 378.68c0-52.865-42.855-95.72-95.72-95.72s-95.72 42.855-95.72 95.72c0 52.865 42.855 95.72 95.72 95.72s95.72-42.855 95.72-95.72zM512 632.8c0-52.865-42.855-95.72-95.72-95.72s-95.72 42.855-95.72 95.72c0 52.865 42.855 95.72 95.72 95.72s95.72-42.855 95.72-95.72zM755.52 586.4c0-52.865-42.855-95.72-95.72-95.72s-95.72 42.855-95.72 95.72c0 52.865 42.855 95.72 95.72 95.72s95.72-42.855 95.72-95.72zM0 992v-1024h1024v1024zM236.4 778.96c14.651 53.338 62.708 91.876 119.767 91.876 11.319 0 22.284-1.517 32.703-4.358l66.491-17.758c-96.372-14.275-179.074-64.004-235.948-135.258zM212 206.4c-53.46 14.568-92.117 62.685-92.117 119.831 0 11.267 1.503 22.182 4.318 32.558l18.359 68.771c15.502-99.485 68.8-184.271 144.467-240.745zM787.68 181.040c-14.644-53.348-62.706-91.896-119.772-91.896-11.346 0-22.337 1.524-32.778 4.378l-83.73 22.477c108.439 13.061 201.104 71.417 259.811 155.29zM510.36 146.28c-185.987 0-336.76 150.773-336.76 336.76s150.773 336.76 336.76 336.76c185.987 0 336.76-150.773 336.76-336.76s-150.773-336.76-336.76-336.76c-0.028 0-0.056 0-0.084 0zM900 602.080l-23.44-88c-9.198 105.864-61.835 197.869-139.767 259.159l75.207-19.679c53.455-14.571 92.108-62.686 92.108-119.829 0-11.253-1.499-22.156-4.308-32.52z" />
<glyph unicode="&#xe914;" glyph-name="aparat" data-tags="aparat" d="M558.24 52.72l99.36-26.48c11.133-3.051 23.917-4.805 37.11-4.805 66.978 0 123.402 45.188 140.448 106.74l28.842 108.304c-69.785-99.86-178.509-168.385-303.682-183.555zM445.44 912.68l-79.040 21.080c-11.133 3.051-23.917 4.805-37.11 4.805-66.978 0-123.402-45.188-140.448-106.74l-20.842-78.664c67.396 84.435 164.401 142.76 275.069 159.23zM78.68 418.48l-21.8-81.72c-3.045-11.122-4.794-23.891-4.794-37.070 0-67.033 45.262-123.494 106.891-140.49l90.263-24.041c-89.891 67.103-152.396 166.594-170.246 280.88zM864 801.040l-89.16 23.76c92.307-72.651 154.010-180.605 164.646-303.177l27.594 101.497c3.065 11.158 4.826 23.969 4.826 37.192 0 67.030-45.258 123.489-106.883 140.487zM510 878.72c-218.241 0-395.16-176.919-395.16-395.16s176.919-395.16 395.16-395.16c218.241 0 395.16 176.919 395.16 395.16s-176.919 395.16-395.16 395.16zM399.64 771.68c0.012 0 0.026 0 0.040 0 62.055 0 112.36-50.305 112.36-112.36s-50.305-112.36-112.36-112.36c-62.055 0-112.36 50.305-112.36 112.36 0 62.041 50.282 112.337 112.318 112.36zM342.32 248.76c-62.055 0-112.36 50.305-112.36 112.36s50.305 112.36 112.36 112.36c62.055 0 112.36-50.305 112.36-112.36s-50.305-112.36-112.36-112.36zM460 480c0 27.526 22.314 49.84 49.84 49.84s49.84-22.314 49.84-49.84c0-27.526-22.314-49.84-49.84-49.84s-49.84 22.314-49.84 49.84zM625.56 193.8c-62.055 0-112.36 50.305-112.36 112.36s50.305 112.36 112.36 112.36c62.055 0 112.36-50.305 112.36-112.36 0 0 0 0 0 0 0-61.998-50.214-112.269-112.191-112.36zM685.28 492.48c-62.055 0-112.36 50.305-112.36 112.36s50.305 112.36 112.36 112.36c62.055 0 112.36-50.305 112.36-112.36 0 0 0 0 0 0 0-61.998-50.214-112.269-112.191-112.36z" />
<glyph unicode="&#xe915;" glyph-name="tumblr-negative" data-tags="tumblr-negative" d="M0 992v-1024h1024v1024zM601.56 96c-170.88-2.88-224.48 119.2-224.48 205.080v238.92h-93.080v111.28c119 41.96 150.16 147.080 156.88 206.96 0.197 3.071 2.617 5.52 5.659 5.759l114.981 0.001v-196h142.48v-128h-143.12v-227c0.52-32.56 12.68-77.36 75.52-75.72 20.84 0.52 48.72 6.48 63.32 13.24l37.76-109.52c-14.16-20.36-78.24-44-135.92-45z" />
<glyph unicode="&#xe916;" glyph-name="tumblr" data-tags="tumblr" d="M731.040 212.32c-17.040-8-49.56-14.84-73.88-15.44-73.28-1.92-87.48 50.36-88 88.36v263.28h170.84v155.48h-172v224h-132.36c-3.537-0.299-6.327-3.13-6.559-6.659-8.001-69.861-41.281-192.501-180.001-241.461v-131.32h105.56v-277.2c0-100.2 62.52-242.6 261.88-239.28 67.28 1.12 142 28.72 158.56 52.48z" />
<glyph unicode="&#xe917;" glyph-name="360-feature" data-tags="360-feature" d="M464.44 827.040c49.64-4.48 104.68-18.92 144-43.32l-30.12-38.64 167.56-29.080-57.080 170.84-35.52-45.56c-24.68 16.32-50.28 27-80.4 37.12-40.64 13.68-108.48 25.32-160.4 18.52l-2.56-0.28c-3.8-0.36-7.56-0.8-11.32-1.32-9.2-1.2-18.4-2.68-27.6-4.76-68-15.4-126.28-49.56-166.36-100.32l-0.76-0.96c-2.32-2.96-4.6-5.88-6.8-8.88-12.948-17.352-24.439-37.086-33.576-58.081l-0.744-1.919 76.72-2.52c45.48 78.36 135 117.24 224.96 109.16zM444.28 132.96c-49.64 4.48-104.68 18.92-144 43.28l30.12 38.64-167.6 29.12 57.2-170.84 35.52 45.52c24.68-16.32 50.28-27 80.4-37.12 40.64-13.68 108.48-25.32 160.4-18.52l2.56 0.28c3.8 0.36 7.56 0.8 11.32 1.32 9.2 1.2 18.4 2.68 27.6 4.76 68 15.4 126.28 49.56 166.36 100.32l0.76 0.96c2.32 2.96 4.6 5.88 6.8 8.88 12.948 17.352 24.439 37.086 33.576 58.081l0.744 1.919-76.72 2.52c-45.56-78.32-135.080-117.2-225.040-109.12zM249.6 397.96q0 78.040-82.56 90.040 39 7.32 58.76 30.2t19.76 60.76q0 48-34.4 74.16-32.48 24.92-90.4 24.92c-0.201 0-0.439 0.001-0.677 0.001-39.025 0-76.297-7.504-110.452-21.149l2.009 0.708 13-54.16q50.88 21.12 87.72 21.12 30.88 0 48-13.68c10.629-8.5 17.378-21.467 17.378-36.011 0-0.812-0.021-1.62-0.063-2.421l0.005 0.112q0-28.68-26.8-45.2-23.28-14.6-73.64-14.6-11.080 0-25.44 1.36v-52.24q19.76 1.080 32 1.080 98 0 98-62.8c0.012-0.459 0.019-1 0.019-1.542 0-16.444-6.402-31.392-16.849-42.49l0.029 0.032q-19.24-20.56-60-20.56c-33.279 0.416-64.605 8.359-92.487 22.2l1.247-0.56-13.76-55.080c32.23-12.863 69.584-20.323 108.68-20.323 0.436 0 0.871 0.001 1.307 0.003h-0.067q65.24 0 100.44 28.68 39.24 31.96 39.24 87.44zM510.040 624.56c16.146-0.615 31.446-3.145 46.023-7.374l-1.343 0.334 5.28 56.32c-15.006 2.389-32.591 3.946-50.469 4.313l-0.411 0.007q-111.52 0-156.76-96.36-27.6-58.76-27.6-138.6 0-74.72 29.76-115.6 33.28-45.48 101.8-45.48 62.28 0 97.44 38.44 32.76 35.72 32.76 95.28 0 53.6-25.72 84.72-30.32 37.080-84 37.080c-0.758 0.020-1.651 0.031-2.547 0.031-30.13 0-57.296-12.691-76.444-33.018l-0.049-0.053q4.6 44.92 26 76 30.24 43.96 86.28 43.96zM411.52 464.28c11.058 12.646 27.222 20.589 45.242 20.589 0.661 0 1.319-0.011 1.974-0.032l-0.096 0.002c0.632 0.026 1.375 0.041 2.12 0.041 17.755 0 33.537-8.45 43.543-21.549l0.097-0.132q14.88-19.24 14.88-51.72 0-35.2-16.92-56c-10.237-12.77-25.836-20.877-43.328-20.877-0.714 0-1.426 0.014-2.134 0.040l0.102-0.003c-0.535-0.017-1.164-0.027-1.796-0.027-17.738 0-33.642 7.854-44.423 20.275l-0.062 0.073q-17.32 20-17.32 56-0.040 32.76 18.080 53.36zM772.36 678.16q-74.72 0-108.56-59.56-26.24-46.56-26.24-136.44 0-102.32 32.88-151.2t101.92-48.88q74.72 0 108.56 60 26.24 46.56 26.24 138.080 0 100.96-33.040 149.56t-101.76 48.44zM823 371.6q-16.52-35.32-50.64-35.32t-51.72 37.36q-15.44 33.56-15.44 108 0 72.28 16.52 107.32t50.64 35.040q34.64 0 51.72-37.36 15.44-33.56 15.44-106.64t-16.56-108.4zM1006.040 718.2c-12.1 11.026-28.261 17.778-46 17.778s-33.9-6.752-46.054-17.827l0.054 0.049c-11.161-10.992-18.076-26.267-18.076-43.158 0-0.732 0.013-1.461 0.039-2.187l-0.003 0.105c-0.053-0.954-0.083-2.070-0.083-3.194 0-33.888 27.472-61.36 61.36-61.36 1.056 0 2.106 0.027 3.15 0.079l-0.146-0.006c0.744-0.032 1.616-0.051 2.492-0.051 33.844 0 61.28 27.436 61.28 61.28 0 0.89-0.019 1.776-0.057 2.656l0.004-0.126c0.021 0.603 0.033 1.312 0.033 2.024 0 17.121-6.869 32.637-18.001 43.944l0.008-0.008zM981.28 649.88c-5.647-4.98-13.108-8.021-21.28-8.021s-15.633 3.040-21.315 8.051l0.035-0.030c-4.813 5.568-7.745 12.879-7.745 20.874 0 0.72 0.024 1.434 0.071 2.142l-0.005-0.096c-0.029 0.493-0.046 1.069-0.046 1.649 0 7.879 3.062 15.043 8.060 20.366l-0.015-0.016c5.552 4.884 12.881 7.865 20.907 7.865 8.132 0 15.549-3.060 21.163-8.091l-0.030 0.026c4.987-5.437 8.042-12.715 8.042-20.708 0-0.567-0.015-1.131-0.046-1.69l0.003 0.078c0.034-0.541 0.053-1.173 0.053-1.81 0-7.922-2.979-15.149-7.879-20.62l0.026 0.029z" />
<glyph unicode="&#xe918;" glyph-name="fast-backward" data-tags="fast-backward" d="M464 32v896l-448-448 448-448zM576 480l448-448v896l-448-448z" />
<glyph unicode="&#xe919;" glyph-name="fast-forward" data-tags="fast-forward" d="M560 928v-896l448 448-448 448zM0 32l448 448-448 448v-896z" />
<glyph unicode="&#xe91a;" glyph-name="pause" data-tags="pause" d="M648 888h272v-816h-272v816zM104 888h272v-816h-272v816z" />
<glyph unicode="&#xe91b;" glyph-name="replay" data-tags="replay" d="M512 160c-0.030 0-0.066 0-0.102 0-176.731 0-320 143.269-320 320s143.269 320 320 320c107.497 0 202.614-53.005 260.64-134.305l0.461-1.175-111.64-15.68v-76.84l298.68 0.48v298.040h-76.44l-16.52-117.48c-82.712 106.745-210.936 174.796-355.054 174.796-247.424 0-448-200.576-448-448s200.576-448 448-448c173.54 0 324.034 98.673 398.438 242.976l-113.064 60.469c-53.996-104.827-161.47-175.278-285.399-175.28z" />
<glyph unicode="&#xe91c;" glyph-name="skip-backward" data-tags="skip-backward" d="M912 928l-672-386.96v386.96h-128v-896h128v386.96l672-386.96v896z" />
<glyph unicode="&#xe91d;" glyph-name="skip-forward" data-tags="skip-forward" d="M784 928h128v-896h-128v896zM112 32v896l778-448-778-448z" />
<glyph unicode="&#xe91e;" glyph-name="stop" data-tags="stop" d="M104 888h816v-816h-816v816z" />
<glyph unicode="&#xe91f;" glyph-name="audio-down" data-tags="speakers-down" d="M0 352l96-6.72v269.4l-96-6.68v-256zM192 345.28l384-185.28v640l-384-185.32v-269.4zM890.72 525.2h-85.44l-133.28-9.32v-71.88l133.28-9.32h85.44l133.28 9.32v71.88l-133.28 9.32z" />
<glyph unicode="&#xe920;" glyph-name="audio-up" data-tags="speakers-up" d="M0 352l96-6.72v269.4l-96-6.68v-256zM192 345.28l384-185.28v640l-384-185.32v-269.4zM890.72 522.72l-9.32 133.28h-66.8l-9.32-133.28-133.28-9.32v-66.8l133.28-9.32 9.32-133.28h66.8l9.32 133.28 133.28 9.32v66.8l-133.28 9.32z" />
<glyph unicode="&#xe921;" glyph-name="windows-app-store" data-tags="windows-app-store" d="M496.84 897.64c-44-15.52-76.48-28.8-76.48-113.16v-40.48l26.44 5.32v34.92c-0.64 57.24 14.24 69.2 52.84 85.88-0.033 9.747-1.066 19.233-3 28.386zM573.76 915.68c1.608-7.291 3.020-16.367 3.921-25.593 69.239 8.913 68.079-19.567 68.079-79.127v-22l26.24 5.36v16.64c0 92.48-14.6 117.24-98.24 104.72zM301.2 720v121.68c-0.84 75.36 38.12 98.32 109.96 115.28 108.24 25.4 115.12-44.4 115.12-88.8v-103.080l26.52 5.36v95.48c-0.28 84-26.48 146.92-146.92 119.6-64.88-14.68-131.12-31.24-131.12-141.52v-129.2l26.44 5.2zM804.32 788.76l-731.72-145.6-0.6-529.56 732-145.6 147.28 53.080v714.92l-146.96 52.76zM396 223.12l-160 22.76v134.12h160zM396 400h-160v124l160 22.8zM620 192l-204 29.76v158.24h204zM620 400h-204v149.6l204 28z" />
<glyph unicode="&#xe922;" glyph-name="apple-mac-app-store" data-tags="apple-mac-app-store" d="M375.72 483.28l-64.92-115.28h406.12l-66.4 115.28h-274.8zM1024 483.28h-219.16l66.32-115.28h152.84v115.28zM751.52 557.48l-204 355.64c-5.024 7.286-13.325 12-22.726 12-0.012 0-0.024 0-0.036 0-5.095-0.020-9.865-1.398-13.971-3.792l-51.427-29.328c-8.414-4.855-13.986-13.805-13.986-24.055 0-5.009 1.33-9.707 3.657-13.76l278.969-486.705 100 57zM891.6 312.96l-59.16 103.28-100-57 59.56-103.48c11.56 6.32 87.36 49.76 99.6 57.2zM0 483.28v-115.28h155.96l64.92 115.28h-220.88zM902.36 298.080c-6.44 5.72-14.72 0.24-18.84-1.8l-9.080-5.12-55-31.6c-5.8-3.44-10.28-6.12-12.2-7.44-10.16-6.96-4.6-39.16 11.6-68 28.32-50.68 72-34.56 113.6-121.040l7.76-16.24c1.44-2.96 2.48-6.12 4.8-0.96 0 0.32 3.080 6.96 4.36 10.32 16.92 42.040 42.28 162.84-47 241.88zM481.8 746.32l-53.44 30.16c-4.123 2.335-9.054 3.71-14.307 3.71-7.084 0-13.584-2.502-18.664-6.671l-45.548-80.839 100.72-57.48 45.68 81c0.226 1.37 0.355 2.949 0.355 4.558 0 10.876-5.89 20.377-14.654 25.486zM99.2 241.040c-0.44 0.31-0.987 0.495-1.577 0.495-1.417 0-2.584-1.068-2.742-2.442l-18.681-87.773-1.68-8-18.52-87.32c-0.44-2.16 0.48-2.68 2.080-1.16l71 66.64 65.32 61.6c0.663 0.509 1.086 1.303 1.086 2.195 0 1.121-0.669 2.086-1.629 2.518l-44.017 24.687-6.96 4zM345.2 684.48l-243.92-432.44 64.28-36.64 36.6-20.6 243.76 432.2-100.72 57.48z" />
<glyph unicode="&#xe923;" glyph-name="android-app-store" data-tags="android-app-store" d="M720.4 647.24l-549.24 303.92 426.6-426.6 122.64 122.68zM933.96 529.040l-155.28 85.92-135.68-135.68 134.92-134.92 156 86.32c48.92 27.040 48.92 71.32 0.040 98.36zM72.8 959.040c-10.818-12.494-17.409-28.905-17.409-46.856 0-0.402 0.003-0.804 0.010-1.204l-0.401-862.5c-0.002-0.214-0.004-0.468-0.004-0.722 0-18.394 6.955-35.163 18.38-47.821l479.144 479.263zM173.72 10l545.96 302.12-121.92 121.92-424.040-424.040z" />
<glyph unicode="&#xe924;" glyph-name="shuffle" data-tags="shuffle" d="M800 224h-125.2l-94.16 160.76-76.48-130.6 92.64-158.16h203.2v-64l222.28 128-222.28 128v-64zM316.4 574.72l76.48 130.56-92.96 158.72h-299.92v-128h221.92l94.48-161.28zM675.12 736h124.88v-64l222.28 128-222.28 128v-64h-202.88l-374.88-640h-222.24v-128h300.24l374.88 640z" />
<glyph unicode="&#xe925;" glyph-name="biography" data-tags="biography" d="M128 992v-1024h768v1024zM512.48 881.68c68.88 0 115.72-53 115.72-132.28s-46.84-132.28-115.72-132.28-115.68 53.040-115.68 132.32 46.8 132.24 115.68 132.24zM640 64h-384v96h384zM768 224h-512v201.040c1.080 57.2 33.92 96 82.6 99.48v0l88 6.16 85.52-85.48 85.52 85.48 88-6.16c48.76-3.44 80.8-42.32 81.76-99.52z" />
<glyph unicode="&#xe926;" glyph-name="embed" data-tags="embed" d="M378.24 152.44l89.88-23.32 177.64 678.44-89.88 23.32-177.64-678.44zM765.2 738.8l-57.48-57.52 174.64-201.52-174.36-201.28 57.24-57.24 258.76 258.8-258.8 258.76zM258.8 738.8l-258.8-258.76 258.76-258.8 57.24 57.24-174.36 201.28 174.64 201.52-57.48 57.52z" />
<glyph unicode="&#xe927;" glyph-name="facts-and-forecasts" data-tags="facts-and-forecasts" d="M32 288h256v-320h-256v320zM384 511.92h256v-543.92h-256v543.92zM736 384h256v-416h-256v416zM460.24 664c2.343 7.163 3.695 15.406 3.695 23.964 0 11.593-2.479 22.606-6.937 32.539l0.202-0.504 141.92 123.24c11.68-7.053 25.786-11.226 40.868-11.226 11.243 0 21.944 2.319 31.652 6.505l-0.519-0.199 171.64-189.72c-6.826-11.648-10.857-25.651-10.857-40.595 0-21.974 8.716-41.913 22.879-56.547l-0.021 0.022c14.494-14.582 34.565-23.608 56.744-23.608 44.183 0 80 35.817 80 80s-35.817 80-80 80c-11.985 0-23.354-2.635-33.559-7.358l0.495 0.206-170.8 188.8c7.692 12.070 12.259 26.78 12.259 42.558 0 44.183-35.817 80-80 80s-80-35.817-80-80c0-11.975 2.631-23.335 7.346-33.534l-0.205 0.495-141.4-122.84c-11.829 7.291-26.164 11.61-41.507 11.61-44.183 0-80-35.817-80-80 0-4.424 0.359-8.764 1.050-12.992l-0.062 0.462-135.8-68.4c-14.628 15.097-35.089 24.468-57.74 24.468-44.382 0-80.36-35.978-80.36-80.36s35.978-80.36 80.36-80.36c44.382 0 80.36 35.978 80.36 80.36 0 4.595-0.386 9.1-1.126 13.484l0.066-0.473 135.68 68.4c14.555-14.982 34.894-24.279 57.403-24.279 35.568 0 65.714 23.211 76.118 55.313l0.159 0.566z" />
<glyph unicode="&#xe928;" glyph-name="infographic" data-tags="infographic" d="M0 864v-768h1024v768zM928 192h-832v576h832zM488 256c109.109 0 197.56 88.451 197.56 197.56v0h-197.56v197.52c-0.836 0.013-1.823 0.020-2.811 0.020-109.109 0-197.56-88.451-197.56-197.56s88.451-197.56 197.56-197.56c0.988 0 1.975 0.007 2.96 0.022l-0.149-0.002zM536 699.080v-197.56h197.56c0 109.109-88.451 197.56-197.56 197.56v0z" />
<glyph unicode="&#xe929;" glyph-name="renren-negative" data-tags="renren-negative" d="M0 992v-1024h1024v1024zM128 482.2c0 0.215-0.001 0.469-0.001 0.724 0 104.924 41.964 200.047 110.024 269.501l-0.063-0.065c29.419 30.191 63.685 55.477 101.575 74.638l2.185 1.002 1.52 0.76c4.28 2.080 8.6 4 12.96 6.080l3.36 1.44q5.64 2.44 11.4 4.72l4.8 1.88c3.36 1.28 6.76 2.52 10.16 3.68l6.080 2.080c3.040 1 6.080 1.96 9.12 2.84l7.12 2.12 8.24 2.16c2.68 0.72 5.4 1.44 8 2.040l7.44 1.6c3 0.64 6 1.32 9 1.88l6.92 1.16c3.080 0.52 6.16 1.12 9.28 1.56v-299.040q0-7.12-0.24-14.24c0-1.84-0.2-3.64-0.32-5.48 0-2.84-0.24-5.72-0.48-8.6s-0.4-4.64-0.64-7-0.4-4.6-0.64-6.92-0.68-5.36-1.040-8c-0.24-1.88-0.44-3.8-0.72-5.68-0.44-3-0.96-5.96-1.44-8.96-0.24-1.56-0.48-3.080-0.76-4.6-0.6-3.28-1.24-6.52-1.92-9.72-0.24-1.2-0.48-2.44-0.72-3.64-0.76-3.56-1.64-7.080-2.48-10.6l-0.6-2.52q-1.48-5.72-3.12-11.44l-0.4-1.48c-1.2-4-2.48-8.24-3.8-12.28-0.003-0.054-0.005-0.117-0.005-0.18s0.002-0.126 0.005-0.189v0.009c-34.021-101.967-106.694-183.149-200.196-227.645l-2.324-0.995c-66.397 69.192-107.28 163.311-107.28 266.977 0 0.149 0 0.297 0 0.446v-0.023zM512 96c-0.005 0-0.010 0-0.016 0-65.594 0-127.303 16.634-181.139 45.913l1.995-0.993c76.211 48.136 137.114 114.142 177.854 192.327l1.306 2.753c42.105-81.005 103.057-147.072 177.279-194.073l2.041-1.207c-51.796-28.163-113.425-44.72-178.92-44.72-0.14 0-0.281 0-0.421 0h0.022zM788.72 214.8c-132.177 63.059-221.881 195.625-221.881 349.144 0 0.357 0 0.715 0.001 1.072v-0.055 299.040c187.342-28.827 329.128-188.887 329.128-382.063 0-103.712-40.868-197.879-107.379-267.274l0.131 0.137z" />
<glyph unicode="&#xe92a;" glyph-name="renren" data-tags="renren" d="M576 928v-348.88c0-180 105.56-337.68 258.84-408.48 77.442 80.797 125.12 190.654 125.12 311.646 0 225.359-165.408 412.084-381.441 445.394l-2.519 0.32zM425.32 437.32c-0.004 0.066-0.006 0.143-0.006 0.22s0.002 0.154 0.007 0.231v-0.011c1.56 4.72 3.040 9.52 4.44 14.32l0.48 1.72q1.92 6.64 3.64 13.32l0.72 2.96c1 4 2 8.2 2.92 12.36 0.28 1.4 0.56 2.8 0.84 4.24 0.8 3.76 1.56 7.52 2.24 11.36 0.32 1.76 0.6 3.56 0.88 5.36 0.56 3.48 1.16 6.92 1.68 10.44 0.32 2.2 0.56 4.44 0.84 6.64 0.4 3.16 0.84 6.24 1.2 9.4s0.48 5.36 0.72 8 0.56 5.44 0.72 8c0.24 3.32 0.4 6.68 0.56 10.040 0 2.12 0.28 4.24 0.36 6.4q0.28 8.28 0.28 16.6v349.080c-3.64-0.52-7.2-1.2-10.8-1.8-2.68-0.48-5.36-0.84-8-1.32-3.52-0.68-7-1.48-10.52-2.2l-8.68-1.84c-3.16-0.72-6.28-1.6-9.44-2.4s-6.44-1.64-9.6-2.52l-8.32-2.48c-3.56-1.080-7.12-2.16-10.64-3.32l-7.040-2.4c-4-1.4-8-2.8-12-4.32l-5.64-2.2q-6.68-2.68-13.28-5.52l-4-1.68c-5.080-2.28-10.12-4.64-15.12-7.080l-1.8-0.92c-46.715-23.506-86.66-52.977-120.869-88.066l-0.091-0.094c-79.349-81.262-128.301-192.512-128.301-315.196 0-121.084 47.683-231.031 125.296-312.088l-0.156 0.164c111.854 52.999 196.708 147.664 235.56 263.44l0.92 3.16zM512 312c-49.048-94.428-120.094-171.436-206.62-226.193l-2.38-1.407c60.53-32.954 132.562-52.331 209.12-52.331s148.59 19.376 211.46 53.493l-2.34-1.162c-88.964 56.18-160.081 133.181-207.714 224.39l-1.526 3.21z" />
<glyph unicode="&#xe92b;" glyph-name="webcast" data-tags="webcast" d="M502.92 464.040l209.92 127.72-209.92 127.72v-255.44zM1024 863.24c0 26.51-21.49 48-48 48v0h-800c-26.51 0-48-21.49-48-48v0-271.36h96v223.44h704v-447.040h-448l4-6.2c15.278-25.428 29.125-54.857 39.956-85.706l1.044-3.414v-0.48h451c26.51 0 48 21.49 48 48v0c0 111.84 0 392.32 0 542.76zM54.2 144.4c-1.871 0.258-4.032 0.406-6.228 0.406-26.51 0-48-21.49-48-48s21.49-48 48-48c26.51 0 48 21.49 48 48 0 2.212-0.15 4.39-0.439 6.522l0.028-0.248c-2.922 21.556-19.799 38.419-41.113 41.293l-0.247 0.027zM64 522.6v-64c191.068 0 345.96-154.892 345.96-345.96h64c0 0.169 0 0.369 0 0.569 0 112.988-45.865 215.263-119.993 289.224l-0.007 0.007c-73.984 74.231-176.323 120.16-289.391 120.16-0.2 0-0.4 0-0.6 0h0.031zM64 394.84v-64c120.531 0 218.24-97.709 218.24-218.24v0h64c0 0.048 0 0.104 0 0.16 0 155.788-126.292 282.080-282.080 282.080-0.056 0-0.113 0-0.169 0h0.009zM64 267.12q0-32 0-64c49.971 0 90.48-40.509 90.48-90.48v0h64c0 0.036 0 0.078 0 0.12 0 85.251-69.109 154.36-154.36 154.36-0.042 0-0.084 0-0.126 0h0.006z" />
<glyph unicode="&#xe92c;" glyph-name="weixin-negative" data-tags="weixin-negative" d="M512 605.76c18.446 0 33.4 14.954 33.4 33.4s-14.954 33.4-33.4 33.4c-18.446 0-33.4-14.954-33.4-33.4v0c0.045-18.428 14.972-33.355 33.396-33.4h0.004zM662.28 572.4c-112.64 0-200.36-75.72-200.36-166.96s87.72-166.96 200.36-166.96c0.127 0 0.277 0 0.428 0 27.811 0 54.556 4.568 79.524 12.994l-1.752-0.513 7.040 2.36 54.28-30.4-15.2 52 9.32 6.92c41.6 30.8 66.72 74.12 66.72 123.48-0.040 91.36-87.76 167.080-200.36 167.080zM587.12 422.12c-13.829 0-25.040 11.211-25.040 25.040s11.211 25.040 25.040 25.040c13.829 0 25.040-11.211 25.040-25.040v0c-0.348-13.687-11.353-24.692-25.007-25.039l-0.033-0.001zM737.4 422.12c-13.829 0-25.040 11.211-25.040 25.040s11.211 25.040 25.040 25.040c13.829 0 25.040-11.211 25.040-25.040v0c-0.348-13.687-11.353-24.692-25.007-25.039l-0.033-0.001zM311.64 672.56c-18.446 0-33.4-14.954-33.4-33.4s14.954-33.4 33.4-33.4c18.446 0 33.4 14.954 33.4 33.4v0c-0.045 18.428-14.972 33.355-33.396 33.4h-0.004zM0 992v-1024h1024v1024zM856.68 153.88l-114.32 64c-23.848-7.805-51.314-12.474-79.818-12.838l-0.182-0.002c-94.64 0-177.16 48.24-213.68 118.92-11.1-1.337-23.954-2.1-36.987-2.1-33.088 0-65.028 4.919-95.127 14.065l2.314-0.604-137.84-85.24 44 132c-62.68 46.56-97.040 110.68-97.040 181.92 0 133.48 127.32 242.080 284 242.080 139.72 0 257.2-86.040 279.68-202.080 114.12-12 204.32-94.88 204.32-198.56 0-56.68-28-106.44-71.24-142.16z" />
<glyph unicode="&#xe92d;" glyph-name="weixin" data-tags="weixin" d="M386.72 888c-195.72 0-354.92-136-354.92-302.92 0-89.12 43-169.32 121.44-227.36l-55.12-165.24 172.28 106.64c47.76-15.080 106.040-20.32 162.32-14.2 45.64-88.4 148.84-148.92 267.28-148.92 35.851 0.442 70.186 6.261 102.452 16.685l-2.452-0.685 142.96-80-40 136.8c53.84 44.64 89.080 106.84 89.080 177.76 0 129.68-112.8 233.080-255.72 248.36-27.96 145.28-174.88 253.080-349.6 253.080zM261.44 720.8c0.012 0 0.026 0 0.040 0 23.063 0 41.76-18.697 41.76-41.76s-18.697-41.76-41.76-41.76c-23.063 0-41.76 18.697-41.76 41.76v0c0.068 23.022 18.701 41.669 41.711 41.76h0.009zM512 720.8c23.063 0 41.76-18.697 41.76-41.76s-18.697-41.76-41.76-41.76c-23.063 0-41.76 18.697-41.76 41.76v0c0.068 23.036 18.724 41.692 41.753 41.76h0.007zM700 595.52c140.84 0 250.52-94.68 250.52-208.8 0-61.72-31.44-116-83.44-154.44l-11.68-8.64 19-65.2-68 38-8.8-2.92c-29.027-9.891-62.466-15.6-97.237-15.6-0.184 0-0.368 0-0.552 0h0.029c-140.88 0-250.56 94.64-250.56 208.8s109.68 208.8 250.56 208.8zM605.88 470.24c-17.298 0-31.32-14.022-31.32-31.32s14.022-31.32 31.32-31.32c17.298 0 31.32 14.022 31.32 31.32v0c-0.372 17.146-14.174 30.948-31.285 31.319l-0.035 0.001zM793.88 470.24c-17.298 0-31.32-14.022-31.32-31.32s14.022-31.32 31.32-31.32c17.298 0 31.32 14.022 31.32 31.32v0c-0.372 17.146-14.174 30.948-31.285 31.319l-0.035 0.001z" />
<glyph unicode="&#xe92e;" glyph-name="add-to-download-basket" data-tags="add-to-download-basket" d="M472 709.68l-0.8 93.88 175.6 12.44 12.28 175.28h93.88l12.24-175.28 175.48-12.28v-94.040l-175.48-12.24-12.28-175.48h-93.84l-12.28 175.52zM992 448.68l-64-480h-832l-64 480h311.44l-229.4 142.16 50.56 81.6 361.040-223.76zM268.28 160.68h-101.040l12.8-96h88.24zM268.28 352.68h-126.64l12.8-96h113.84zM464 160.68h-99.72v-96h99.72zM464 352.68h-99.72v-96h99.72zM658 160.68h-98v-96h98zM658 352.68h-98v-96h98zM856.76 160.68h-102.76v-96h90zM882.36 352.68h-128.36v-96h115.56z" />
<glyph unicode="&#xe92f;" glyph-name="audio-off" data-tags="audio-off" d="M0 352l96-6.72v269.4l-96-6.68v-256zM192 345.28l384-185.28v640l-384-185.32v-269.4zM1024 595.96l-45.24 45.28-116-100.84-115.96 100.84-45.24-45.28 100.8-115.96-100.8-115.96 45.24-45.28 115.96 100.84 116-100.84 45.24 45.28-100.8 115.96 100.8 115.96z" />
<glyph unicode="&#xe930;" glyph-name="download-basket" data-tags="download-basket" d="M525.68 608l-361.080 224-50.56-81.72 229.4-142.28h-311.44l64-480h832l64 480zM869.68 416h-115.68v96h128.32zM464 512v-96h-99.72v96zM464 320v-96h-99.72v96zM560 320h98v-96h-98zM560 416v96h98v-96zM268.28 512v-96h-113.84l-12.8 96zM167.24 320h101.040v-96h-88.28zM754 224v96h102.72l-12.72-96z" />
<glyph unicode="&#xe931;" glyph-name="gif" data-tags="gif" d="M176 992v-652h672v652zM374.52 895.2c39.765 0 72-32.235 72-72s-32.235-72-72-72c-39.765 0-72 32.235-72 72v0c0 39.765 32.235 72 72 72v0zM272 468l102.52 152 64.2-95.2 137.28 199.2 176-256zM651.92-27.28h61v113.4h121.6v47.68h-121.6v61.8h127.080v47.72h-188.080v-270.6zM304.44 200.28c22.56 0 33.52-4.68 58.6-18.36l19 47.72c-27.6 12.52-48.96 18.36-81.2 18.36-36 0-57.16-8.2-78.64-26.6-30.44-25-46.2-65.4-46.2-116.52 0-43 11.080-76.64 33.68-101.28 21.84-24.24 46.76-35.6 89.4-35.6 0.528-0.005 1.151-0.008 1.776-0.008 29.471 0 57.392 6.64 82.347 18.506l-1.163-0.497v138h-96.72v-47.72h42.68v-54.36c-7.674-3.96-16.749-6.281-26.366-6.281-0.124 0-0.249 0-0.373 0.001h0.019c-36 0-61.2 35.6-61.2 91.52-0.080 59.88 26.92 93.12 64.36 93.12zM486.48 243.32h61v-270.6h-61v270.6z" />
<glyph unicode="&#xe932;" glyph-name="audio" data-tags="audio" d="M969.44 133.24c34.108 46.824 54.568 105.493 54.568 168.94s-20.46 122.116-55.142 169.768l0.574-0.828h-77.44c0 162.24-66 355.64-380 355.64s-380-193.4-380-355.64h-77.44c-34.108-46.824-54.568-105.493-54.568-168.94s20.46-122.116 55.142-169.768l-0.574 0.828h184v337.88c0.080 172.16 84.4 248.88 273.44 248.88s273.44-76.76 273.44-248.92v0-337.72z" />
<glyph unicode="&#xe933;" glyph-name="feature" data-tags="feature" d="M0 736v-768h768v768h-768zM522.040 139.56l-138.040 79.68-138-79.68 33.12 156-118.48 106.6 158.52 16.68 64.84 145.6 64.8-145.64 158.56-16.68-118.44-106.64zM224 992v-160h640v-640h160v800h-800z" />
<glyph unicode="&#xe934;" glyph-name="footage" data-tags="footage" d="M849.68 399.080v-186.56l174.32-137.52v464.8l-174.32-140.72zM288 768c0-77.563-62.877-140.44-140.44-140.44s-140.44 62.877-140.44 140.44c0 77.563 62.877 140.44 140.44 140.44s140.44-62.877 140.44-140.44zM608 746.32c0-65.589-53.171-118.76-118.76-118.76s-118.76 53.171-118.76 118.76c0 65.589 53.171 118.76 118.76 118.76s118.76-53.171 118.76-118.76zM0 563.56l32-512 720.68 48.68v463.32h-752.68z" />
<glyph unicode="&#xe935;" glyph-name="glassdoor-negative" data-tags="glassdoor-negative" d="M0 992v-1024h1024v1024zM786.28 205.72c0-60.597-49.123-109.72-109.72-109.72v0h-329.12c-60.597 0-109.72 49.123-109.72 109.72v0h438.84v450.52c0 2.209 1.791 4 4 4v0h101.72c2.209 0 4-1.791 4-4v0zM347.44 754.28v-450.52c0-2.209-1.791-4-4-4v0h-101.72c-2.209 0-4 1.791-4 4v0 450.52c0 60.597 49.123 109.72 109.72 109.72v0h329.16c60.597 0 109.72-49.123 109.72-109.72v0z" />
<glyph unicode="&#xe936;" glyph-name="glassdoor" data-tags="glassdoor" d="M672 860.8c60.376 0 109.32-48.944 109.32-109.32v0h-437.32v-448.88c0-2.209-1.791-4-4-4v0h-101.16c-2.209 0-4 1.791-4 4v0 448.88c0 0 0 0 0 0 0 60.319 48.853 109.229 109.151 109.32h328.009zM672 204.8h-437.16c0.068-60.268 48.895-109.109 109.151-109.2h328.009c60.376 0 109.32 48.944 109.32 109.32v448.88c0 2.209-1.791 4-4 4v0h-101.32c-2.209 0-4-1.791-4-4v0z" />
<glyph unicode="&#xe937;" glyph-name="picture-set" data-tags="picture-set" d="M0 32h704v544h-704zM220 494c36.399-0.068 65.88-29.591 65.88-66 0-36.451-29.549-66-66-66s-66 29.549-66 66v0c0 0.024 0 0.052 0 0.080 0 36.451 29.549 66 66 66 0.042 0 0.084 0 0.127 0h-0.007zM192 274l79.32-100 160.32 221 208.36-299h-576zM318.76 927.92l-67.6-255.84h548.84v-458.96l96-36.080 128 564.72-705.24 186.16z" />
<glyph unicode="&#xe938;" glyph-name="picture" data-tags="picture" d="M0 880v-800h1024v800zM320 752c53.019 0 96-42.981 96-96s-42.981-96-96-96c-53.019 0-96 42.981-96 96v0c0 53.019 42.981 96 96 96v0zM96 176l176 256 112-144 240 320 304-432z" />
<glyph unicode="&#xe939;" glyph-name="press-release" data-tags="press-release" d="M128 992v-1024h768v1024zM256 864h352v-96h-352zM736 384h-480v96h480zM736 576h-480v96h480z" />
<glyph unicode="&#xe93a;" glyph-name="videos" data-tags="videos" d="M0 864v-768h1024v768zM342.48 253.8v452.36l393.52-226.16z" />
<glyph unicode="&#xe93b;" glyph-name="slideshow" data-tags="slideshow" d="M288 672.24v-384.24h-128v384.24zM95.6 615.24v-270.24h-95.6v270.24zM352.64 736v-512h671.36v512zM544.28 679.48c35.346 0 64-28.654 64-64s-28.654-64-64-64c-35.346 0-64 28.654-64 64v0c-0.010 0.409-0.015 0.892-0.015 1.375 0 34.595 28.045 62.64 62.64 62.64 0.484 0 0.966-0.005 1.447-0.016l-0.072 0.001zM448.28 327.48l102.080 126.72 66.92-78.72 131.44 163.16 179.28-211.32z" />
<glyph unicode="&#xe93c;" glyph-name="presentation" data-tags="presentation" d="M0 992h1024v-96h-1024v96zM376.52-32l135.2 102.24 49.56-37.4 86.2-64.84h107.68l-243.44 237.76-242.88-237.76h107.68zM64 832v-626.24h896v626.24h-896zM352 294.44c-106.093 0.25-192 86.312-192 192.439 0 0.141 0 0.282 0 0.423v-0.022c0 105.72 86.88 191.64 192 192.72v-200.52h192c-4.064-102.955-88.44-184.896-191.986-185.040h-0.014zM608 544h-192v201.12c0.001 0 0.002 0 0.003 0 106.039 0 192-85.961 192-192 0-0.394-0.001-0.787-0.004-1.18v0.060c0-2.64 0-5.32 0-8zM864 320h-224v64h224zM864 416h-128v64h128z" />
</font>
</defs>
</svg>
